<?xml version="1.0" encoding="UTF-8" standalone="no"?>
<!DOCTYPE svg PUBLIC "-//W3C//DTD SVG 1.1//EN"
 "http://www.w3.org/Graphics/SVG/1.1/DTD/svg11.dtd">
<!-- Generated by graphviz version 2.43.0 (0)
 -->
<!-- Title: story_mode Pages: 1 -->
<svg width="2022pt" height="2181pt"
 viewBox="0.00 0.00 2021.74 2181.00" xmlns="http://www.w3.org/2000/svg" xmlns:xlink="http://www.w3.org/1999/xlink">
<g id="graph0" class="graph" transform="scale(1 1) rotate(0) translate(4 2177)">
<title>story_mode</title>
<polygon fill="white" stroke="transparent" points="-4,4 -4,-2177 2017.74,-2177 2017.74,4 -4,4"/>
<g id="clust1" class="cluster">
<title>cluster_dev</title>
<polygon fill="white" stroke="#8c8c8c" stroke-dasharray="5,2" points="1619.74,-1375 1619.74,-2165 2005.74,-2165 2005.74,-1375 1619.74,-1375"/>
<text text-anchor="middle" x="1812.74" y="-2152.2" font-family="Times,serif" font-size="11.00">flow: dev</text>
</g>
<g id="clust2" class="cluster">
<title>cluster_review</title>
<polygon fill="white" stroke="#8c8c8c" stroke-dasharray="5,2" points="1208.74,-1736 1208.74,-2165 1560.74,-2165 1560.74,-1736 1208.74,-1736"/>
<text text-anchor="middle" x="1384.74" y="-2152.2" font-family="Times,serif" font-size="11.00">flow: review</text>
</g>
<g id="clust3" class="cluster">
<title>cluster_qa</title>
<polygon fill="white" stroke="#8c8c8c" stroke-dasharray="5,2" points="656.74,-8 656.74,-2165 1170.74,-2165 1170.74,-8 656.74,-8"/>
<text text-anchor="middle" x="913.74" y="-2152.2" font-family="Times,serif" font-size="11.00">flow: qa</text>
</g>
<!-- decide_mode -->
<g id="node1" class="node">
<title>decide_mode</title>
<path fill="lightgreen" stroke="black" d="M514.41,-2152.05C514.41,-2152.05 428.07,-2121.95 428.07,-2121.95 422.41,-2119.98 422.41,-2116.02 428.07,-2114.05 428.07,-2114.05 514.41,-2083.95 514.41,-2083.95 520.08,-2081.98 531.41,-2081.98 537.07,-2083.95 537.07,-2083.95 623.41,-2114.05 623.41,-2114.05 629.08,-2116.02 629.08,-2119.98 623.41,-2121.95 623.41,-2121.95 537.07,-2152.05 537.07,-2152.05 531.41,-2154.02 520.08,-2154.02 514.41,-2152.05"/>
<text text-anchor="middle" x="525.74" y="-2121.8" font-family="Times,serif" font-size="14.00">START</text>
<text text-anchor="middle" x="525.74" y="-2106.8" font-family="Times,serif" font-size="14.00">decide_mode</text>
</g>
<!-- branch_story -->
<g id="node11" class="node">
<title>branch_story</title>
<path fill="lightblue" stroke="black" d="M568.74,-2033C568.74,-2033 482.74,-2033 482.74,-2033 476.74,-2033 470.74,-2027 470.74,-2021 470.74,-2021 470.74,-2009 470.74,-2009 470.74,-2003 476.74,-1997 482.74,-1997 482.74,-1997 568.74,-1997 568.74,-1997 574.74,-1997 580.74,-2003 580.74,-2009 580.74,-2009 580.74,-2021 580.74,-2021 580.74,-2027 574.74,-2033 568.74,-2033"/>
<text text-anchor="middle" x="525.74" y="-2011.3" font-family="Times,serif" font-size="14.00">branch_story</text>
</g>
<!-- decide_mode&#45;&gt;branch_story -->
<g id="edge1" class="edge">
<title>decide_mode&#45;&gt;branch_story</title>
<path fill="none" stroke="darkblue" d="M525.74,-2079.96C525.74,-2067.85 525.74,-2054.62 525.74,-2043.35"/>
<polygon fill="darkblue" stroke="darkblue" points="529.24,-2043.24 525.74,-2033.24 522.24,-2043.24 529.24,-2043.24"/>
<text text-anchor="middle" x="538.74" y="-2054" font-family="Times,serif" font-size="10.00">story</text>
</g>
<!-- dev -->
<g id="node2" class="node">
<title>dev</title>
<polygon fill="lightyellow" stroke="black" points="565.74,-1950 489.74,-1950 485.74,-1946 485.74,-1912 561.74,-1912 565.74,-1916 565.74,-1950"/>
<polyline fill="none" stroke="black" points="561.74,-1946 485.74,-1946 "/>
<polyline fill="none" stroke="black" points="561.74,-1946 561.74,-1912 "/>
<polyline fill="none" stroke="black" points="561.74,-1946 565.74,-1950 "/>
<text text-anchor="middle" x="525.74" y="-1934.8" font-family="Times,serif" font-size="14.00">dev</text>
<text text-anchor="middle" x="525.74" y="-1919.8" font-family="Times,serif" font-size="14.00">flow: dev</text>
</g>
<!-- decide_dev -->
<g id="node3" class="node">
<title>decide_dev</title>
<path fill="lightsalmon" stroke="black" d="M513.99,-1862.57C513.99,-1862.57 450.35,-1849.43 450.35,-1849.43 444.48,-1848.21 444.48,-1845.79 450.35,-1844.57 450.35,-1844.57 513.99,-1831.43 513.99,-1831.43 519.87,-1830.21 531.62,-1830.21 537.49,-1831.43 537.49,-1831.43 601.13,-1844.57 601.13,-1844.57 607.01,-1845.79 607.01,-1848.21 601.13,-1849.43 601.13,-1849.43 537.49,-1862.57 537.49,-1862.57 531.62,-1863.79 519.87,-1863.79 513.99,-1862.57"/>
<text text-anchor="middle" x="525.74" y="-1843.3" font-family="Times,serif" font-size="14.00">decide_dev</text>
</g>
<!-- dev&#45;&gt;decide_dev -->
<g id="edge3" class="edge">
<title>dev&#45;&gt;decide_dev</title>
<path fill="none" stroke="darkblue" d="M525.74,-1911.8C525.74,-1901 525.74,-1887.1 525.74,-1875.04"/>
<polygon fill="darkblue" stroke="darkblue" points="529.24,-1875.03 525.74,-1865.03 522.24,-1875.03 529.24,-1875.03"/>
</g>
<!-- dev__reset_plan -->
<g id="node15" class="node">
<title>dev__reset_plan</title>
<path fill="lightgreen" stroke="black" d="M1846.24,-2137C1846.24,-2137 1779.24,-2137 1779.24,-2137 1773.24,-2137 1767.24,-2131 1767.24,-2125 1767.24,-2125 1767.24,-2111 1767.24,-2111 1767.24,-2105 1773.24,-2099 1779.24,-2099 1779.24,-2099 1846.24,-2099 1846.24,-2099 1852.24,-2099 1858.24,-2105 1858.24,-2111 1858.24,-2111 1858.24,-2125 1858.24,-2125 1858.24,-2131 1852.24,-2137 1846.24,-2137"/>
<text text-anchor="middle" x="1812.74" y="-2121.8" font-family="Times,serif" font-size="14.00">START</text>
<text text-anchor="middle" x="1812.74" y="-2106.8" font-family="Times,serif" font-size="14.00">reset_plan</text>
</g>
<!-- dev&#45;&gt;dev__reset_plan -->
<g id="edge84" class="edge">
<title>dev&#45;&gt;dev__reset_plan</title>
<path fill="none" stroke="#8c8c8c" stroke-dasharray="5,2" d="M565.93,-1938.96C590.84,-1942.97 623.55,-1947.65 652.74,-1950 1056.85,-1982.51 1160.08,-1943.39 1564.74,-1968 1628.06,-1971.85 1806.22,-1949.92 1848.74,-1997 1872.19,-2022.96 1851.97,-2063.66 1833.69,-2090.34"/>
<polygon fill="#8c8c8c" stroke="#8c8c8c" points="1830.61,-2088.63 1827.64,-2098.8 1836.3,-2092.71 1830.61,-2088.63"/>
<text text-anchor="middle" x="1870.24" y="-2012.5" font-family="Times,serif" font-size="10.00">calls</text>
</g>
<!-- review -->
<g id="node4" class="node">
<title>review</title>
<polygon fill="lightyellow" stroke="black" points="559.24,-1782 460.24,-1782 456.24,-1778 456.24,-1744 555.24,-1744 559.24,-1748 559.24,-1782"/>
<polyline fill="none" stroke="black" points="555.24,-1778 456.24,-1778 "/>
<polyline fill="none" stroke="black" points="555.24,-1778 555.24,-1744 "/>
<polyline fill="none" stroke="black" points="555.24,-1778 559.24,-1782 "/>
<text text-anchor="middle" x="507.74" y="-1766.8" font-family="Times,serif" font-size="14.00">review</text>
<text text-anchor="middle" x="507.74" y="-1751.8" font-family="Times,serif" font-size="14.00">flow: review</text>
</g>
<!-- decide_dev&#45;&gt;review -->
<g id="edge4" class="edge">
<title>decide_dev&#45;&gt;review</title>
<path fill="none" stroke="darkblue" d="M520.69,-1829.71C518.97,-1823.85 517.14,-1817.16 515.74,-1811 514.38,-1805 513.13,-1798.53 512.05,-1792.35"/>
<polygon fill="darkblue" stroke="darkblue" points="515.49,-1791.68 510.39,-1782.39 508.58,-1792.83 515.49,-1791.68"/>
<text text-anchor="middle" x="550.24" y="-1803" font-family="Times,serif" font-size="10.00">ready|default</text>
</g>
<!-- replan_epic -->
<g id="node12" class="node">
<title>replan_epic</title>
<path fill="lightblue" stroke="black" d="M636.74,-1504C636.74,-1504 562.74,-1504 562.74,-1504 556.74,-1504 550.74,-1498 550.74,-1492 550.74,-1492 550.74,-1480 550.74,-1480 550.74,-1474 556.74,-1468 562.74,-1468 562.74,-1468 636.74,-1468 636.74,-1468 642.74,-1468 648.74,-1474 648.74,-1480 648.74,-1480 648.74,-1492 648.74,-1492 648.74,-1498 642.74,-1504 636.74,-1504"/>
<text text-anchor="middle" x="599.74" y="-1482.3" font-family="Times,serif" font-size="14.00">replan_epic</text>
</g>
<!-- decide_dev&#45;&gt;replan_epic -->
<g id="edge5" class="edge">
<title>decide_dev&#45;&gt;replan_epic</title>
<path fill="none" stroke="darkblue" d="M553.86,-1834.76C564.88,-1829.1 576.76,-1821.24 584.74,-1811 598.15,-1793.81 598.74,-1785.8 598.74,-1764 598.74,-1764 598.74,-1764 598.74,-1568 598.74,-1550.06 598.99,-1529.89 599.24,-1514.16"/>
<polygon fill="darkblue" stroke="darkblue" points="602.74,-1514.12 599.41,-1504.07 595.74,-1514.01 602.74,-1514.12"/>
<text text-anchor="middle" x="615.74" y="-1650.5" font-family="Times,serif" font-size="10.00">replan</text>
</g>
<!-- qa_phase -->
<g id="node5" class="node">
<title>qa_phase</title>
<polygon fill="lightyellow" stroke="black" points="533.24,-1672 454.24,-1672 450.24,-1668 450.24,-1634 529.24,-1634 533.24,-1638 533.24,-1672"/>
<polyline fill="none" stroke="black" points="529.24,-1668 450.24,-1668 "/>
<polyline fill="none" stroke="black" points="529.24,-1668 529.24,-1634 "/>
<polyline fill="none" stroke="black" points="529.24,-1668 533.24,-1672 "/>
<text text-anchor="middle" x="491.74" y="-1656.8" font-family="Times,serif" font-size="14.00">qa_phase</text>
<text text-anchor="middle" x="491.74" y="-1641.8" font-family="Times,serif" font-size="14.00">flow: qa</text>
</g>
<!-- review&#45;&gt;qa_phase -->
<g id="edge6" class="edge">
<title>review&#45;&gt;qa_phase</title>
<path fill="none" stroke="darkblue" d="M505.03,-1743.68C502.53,-1726.82 498.79,-1701.57 495.91,-1682.15"/>
<polygon fill="darkblue" stroke="darkblue" points="499.34,-1681.43 494.42,-1672.05 492.42,-1682.46 499.34,-1681.43"/>
</g>
<!-- review__review_implementation -->
<g id="node27" class="node">
<title>review__review_implementation</title>
<path fill="lightgreen" stroke="black" d="M1540.74,-2137C1540.74,-2137 1380.74,-2137 1380.74,-2137 1374.74,-2137 1368.74,-2131 1368.74,-2125 1368.74,-2125 1368.74,-2111 1368.74,-2111 1368.74,-2105 1374.74,-2099 1380.74,-2099 1380.74,-2099 1540.74,-2099 1540.74,-2099 1546.74,-2099 1552.74,-2105 1552.74,-2111 1552.74,-2111 1552.74,-2125 1552.74,-2125 1552.74,-2131 1546.74,-2137 1540.74,-2137"/>
<text text-anchor="middle" x="1460.74" y="-2121.8" font-family="Times,serif" font-size="14.00">START</text>
<text text-anchor="middle" x="1460.74" y="-2106.8" font-family="Times,serif" font-size="14.00">review_implementation</text>
</g>
<!-- review&#45;&gt;review__review_implementation -->
<g id="edge85" class="edge">
<title>review&#45;&gt;review__review_implementation</title>
<path fill="none" stroke="#8c8c8c" stroke-dasharray="5,2" d="M559.29,-1771.68C586.93,-1775.48 621.62,-1779.72 652.74,-1782 829.43,-1794.93 1274.96,-1771.08 1449.74,-1800 1492.04,-1807 1511.95,-1798.17 1541.74,-1829 1604.89,-1894.36 1576.83,-1944.6 1555.74,-2033 1552.42,-2046.92 1551.09,-2051.17 1541.74,-2062 1531.26,-2074.14 1517.51,-2084.8 1504.32,-2093.42"/>
<polygon fill="#8c8c8c" stroke="#8c8c8c" points="1502.37,-2090.51 1495.77,-2098.79 1506.1,-2096.44 1502.37,-2090.51"/>
<text text-anchor="middle" x="1591.24" y="-1928.5" font-family="Times,serif" font-size="10.00">calls</text>
</g>
<!-- decide_qa_outcome -->
<g id="node6" class="node">
<title>decide_qa_outcome</title>
<path fill="lightsalmon" stroke="black" d="M415.84,-1585.5C415.84,-1585.5 297.21,-1570.5 297.21,-1570.5 291.26,-1569.75 291.26,-1568.25 297.21,-1567.5 297.21,-1567.5 415.84,-1552.5 415.84,-1552.5 421.79,-1551.75 433.69,-1551.75 439.65,-1552.5 439.65,-1552.5 558.28,-1567.5 558.28,-1567.5 564.23,-1568.25 564.23,-1569.75 558.28,-1570.5 558.28,-1570.5 439.65,-1585.5 439.65,-1585.5 433.69,-1586.25 421.79,-1586.25 415.84,-1585.5"/>
<text text-anchor="middle" x="427.74" y="-1565.3" font-family="Times,serif" font-size="14.00">decide_qa_outcome</text>
</g>
<!-- qa_phase&#45;&gt;decide_qa_outcome -->
<g id="edge7" class="edge">
<title>qa_phase&#45;&gt;decide_qa_outcome</title>
<path fill="none" stroke="darkblue" d="M477.54,-1633.8C468.29,-1621.96 456.15,-1606.39 446.16,-1593.6"/>
<polygon fill="darkblue" stroke="darkblue" points="448.88,-1591.39 439.97,-1585.66 443.36,-1595.7 448.88,-1591.39"/>
</g>
<!-- qa__resolve_qa_context -->
<g id="node34" class="node">
<title>qa__resolve_qa_context</title>
<path fill="lightgreen" stroke="black" d="M1096.74,-2137C1096.74,-2137 968.74,-2137 968.74,-2137 962.74,-2137 956.74,-2131 956.74,-2125 956.74,-2125 956.74,-2111 956.74,-2111 956.74,-2105 962.74,-2099 968.74,-2099 968.74,-2099 1096.74,-2099 1096.74,-2099 1102.74,-2099 1108.74,-2105 1108.74,-2111 1108.74,-2111 1108.74,-2125 1108.74,-2125 1108.74,-2131 1102.74,-2137 1096.74,-2137"/>
<text text-anchor="middle" x="1032.74" y="-2121.8" font-family="Times,serif" font-size="14.00">START</text>
<text text-anchor="middle" x="1032.74" y="-2106.8" font-family="Times,serif" font-size="14.00">resolve_qa_context</text>
</g>
<!-- qa_phase&#45;&gt;qa__resolve_qa_context -->
<g id="edge86" class="edge">
<title>qa_phase&#45;&gt;qa__resolve_qa_context</title>
<path fill="none" stroke="#8c8c8c" stroke-dasharray="5,2" d="M533.56,-1663.52C547.27,-1666.47 562.62,-1669.57 576.74,-1672 799.76,-1710.36 1074.62,-1638.33 1166.74,-1800 1196.97,-1853.05 1093.52,-2023.45 1050.57,-2090.01"/>
<polygon fill="#8c8c8c" stroke="#8c8c8c" points="1047.45,-2088.39 1044.93,-2098.69 1053.32,-2092.21 1047.45,-2088.39"/>
<text text-anchor="middle" x="1170.24" y="-1886" font-family="Times,serif" font-size="10.00">calls</text>
</g>
<!-- decide_post_sentinel -->
<g id="node7" class="node">
<title>decide_post_sentinel</title>
<path fill="lightsalmon" stroke="black" d="M138.83,-1502.58C138.83,-1502.58 11.67,-1487.42 11.67,-1487.42 5.72,-1486.71 5.72,-1485.29 11.67,-1484.58 11.67,-1484.58 138.83,-1469.42 138.83,-1469.42 144.78,-1468.71 156.7,-1468.71 162.66,-1469.42 162.66,-1469.42 289.81,-1484.58 289.81,-1484.58 295.77,-1485.29 295.77,-1486.71 289.81,-1487.42 289.81,-1487.42 162.66,-1502.58 162.66,-1502.58 156.7,-1503.29 144.78,-1503.29 138.83,-1502.58"/>
<text text-anchor="middle" x="150.74" y="-1482.3" font-family="Times,serif" font-size="14.00">decide_post_sentinel</text>
</g>
<!-- decide_qa_outcome&#45;&gt;decide_post_sentinel -->
<g id="edge8" class="edge">
<title>decide_qa_outcome&#45;&gt;decide_post_sentinel</title>
<path fill="none" stroke="darkblue" d="M386.87,-1556.05C337.71,-1541.67 255.16,-1517.53 201.84,-1501.94"/>
<polygon fill="darkblue" stroke="darkblue" points="202.82,-1498.58 192.23,-1499.13 200.85,-1505.3 202.82,-1498.58"/>
<text text-anchor="middle" x="344.74" y="-1525" font-family="Times,serif" font-size="10.00">passed|default</text>
</g>
<!-- decide_qa_fail -->
<g id="node8" class="node">
<title>decide_qa_fail</title>
<path fill="lightsalmon" stroke="black" d="M413.91,-1502C413.91,-1502 330.83,-1488 330.83,-1488 324.91,-1487 324.91,-1485 330.83,-1484 330.83,-1484 413.91,-1470 413.91,-1470 419.83,-1469 431.66,-1469 437.57,-1470 437.57,-1470 520.65,-1484 520.65,-1484 526.57,-1485 526.57,-1487 520.65,-1488 520.65,-1488 437.57,-1502 437.57,-1502 431.66,-1503 419.83,-1503 413.91,-1502"/>
<text text-anchor="middle" x="425.74" y="-1482.3" font-family="Times,serif" font-size="14.00">decide_qa_fail</text>
</g>
<!-- decide_qa_outcome&#45;&gt;decide_qa_fail -->
<g id="edge9" class="edge">
<title>decide_qa_outcome&#45;&gt;decide_qa_fail</title>
<path fill="none" stroke="darkblue" d="M427.32,-1550.82C427.06,-1540.19 426.71,-1526.31 426.41,-1514.2"/>
<polygon fill="darkblue" stroke="darkblue" points="429.91,-1514.06 426.17,-1504.15 422.91,-1514.24 429.91,-1514.06"/>
<text text-anchor="middle" x="454.74" y="-1525" font-family="Times,serif" font-size="10.00">exhausted</text>
</g>
<!-- decide_qa_outcome&#45;&gt;replan_epic -->
<g id="edge10" class="edge">
<title>decide_qa_outcome&#45;&gt;replan_epic</title>
<path fill="none" stroke="darkblue" d="M456.53,-1554.44C483.14,-1541.91 523.12,-1523.09 554.08,-1508.51"/>
<polygon fill="darkblue" stroke="darkblue" points="555.82,-1511.56 563.37,-1504.13 552.83,-1505.22 555.82,-1511.56"/>
<text text-anchor="middle" x="541.74" y="-1525" font-family="Times,serif" font-size="10.00">replan</text>
</g>
<!-- commit_story_pr -->
<g id="node13" class="node">
<title>commit_story_pr</title>
<path fill="lightblue" stroke="black" d="M206.74,-1420C206.74,-1420 94.74,-1420 94.74,-1420 88.74,-1420 82.74,-1414 82.74,-1408 82.74,-1408 82.74,-1396 82.74,-1396 82.74,-1390 88.74,-1384 94.74,-1384 94.74,-1384 206.74,-1384 206.74,-1384 212.74,-1384 218.74,-1390 218.74,-1396 218.74,-1396 218.74,-1408 218.74,-1408 218.74,-1414 212.74,-1420 206.74,-1420"/>
<text text-anchor="middle" x="150.74" y="-1398.3" font-family="Times,serif" font-size="14.00">commit_story_pr</text>
</g>
<!-- decide_post_sentinel&#45;&gt;commit_story_pr -->
<g id="edge11" class="edge">
<title>decide_post_sentinel&#45;&gt;commit_story_pr</title>
<path fill="none" stroke="darkblue" d="M150.74,-1467.61C150.74,-1456.77 150.74,-1442.6 150.74,-1430.29"/>
<polygon fill="darkblue" stroke="darkblue" points="154.24,-1430.08 150.74,-1420.08 147.24,-1430.08 154.24,-1430.08"/>
<text text-anchor="middle" x="163.74" y="-1442" font-family="Times,serif" font-size="10.00">story</text>
</g>
<!-- qa_failed -->
<g id="node9" class="node">
<title>qa_failed</title>
<path fill="lightcoral" stroke="black" d="M453.74,-1421C453.74,-1421 397.74,-1421 397.74,-1421 391.74,-1421 385.74,-1415 385.74,-1409 385.74,-1409 385.74,-1395 385.74,-1395 385.74,-1389 391.74,-1383 397.74,-1383 397.74,-1383 453.74,-1383 453.74,-1383 459.74,-1383 465.74,-1389 465.74,-1395 465.74,-1395 465.74,-1409 465.74,-1409 465.74,-1415 459.74,-1421 453.74,-1421"/>
<text text-anchor="middle" x="425.74" y="-1405.8" font-family="Times,serif" font-size="14.00">qa_failed</text>
<text text-anchor="middle" x="425.74" y="-1390.8" font-family="Times,serif" font-size="14.00">(fail)</text>
</g>
<!-- decide_qa_fail&#45;&gt;qa_failed -->
<g id="edge14" class="edge">
<title>decide_qa_fail&#45;&gt;qa_failed</title>
<path fill="none" stroke="darkblue" d="M425.74,-1467.61C425.74,-1457.07 425.74,-1443.36 425.74,-1431.29"/>
<polygon fill="darkblue" stroke="darkblue" points="429.24,-1431.22 425.74,-1421.22 422.24,-1431.22 429.24,-1431.22"/>
<text text-anchor="middle" x="438.74" y="-1442" font-family="Times,serif" font-size="10.00">story</text>
</g>
<!-- done -->
<g id="node10" class="node">
<title>done</title>
<path fill="lightgreen" stroke="black" d="M182.74,-1263C182.74,-1263 118.74,-1263 118.74,-1263 112.74,-1263 106.74,-1257 106.74,-1251 106.74,-1251 106.74,-1237 106.74,-1237 106.74,-1231 112.74,-1225 118.74,-1225 118.74,-1225 182.74,-1225 182.74,-1225 188.74,-1225 194.74,-1231 194.74,-1237 194.74,-1237 194.74,-1251 194.74,-1251 194.74,-1257 188.74,-1263 182.74,-1263"/>
<text text-anchor="middle" x="150.74" y="-1247.8" font-family="Times,serif" font-size="14.00">done</text>
<text text-anchor="middle" x="150.74" y="-1232.8" font-family="Times,serif" font-size="14.00">(terminal)</text>
</g>
<!-- branch_story&#45;&gt;dev -->
<g id="edge2" class="edge">
<title>branch_story&#45;&gt;dev</title>
<path fill="none" stroke="darkblue" d="M525.74,-1996.61C525.74,-1986.07 525.74,-1972.36 525.74,-1960.29"/>
<polygon fill="darkblue" stroke="darkblue" points="529.24,-1960.22 525.74,-1950.22 522.24,-1960.22 529.24,-1960.22"/>
</g>
<!-- open_story_pr -->
<g id="node14" class="node">
<title>open_story_pr</title>
<path fill="lightblue" stroke="black" d="M197.24,-1336C197.24,-1336 104.24,-1336 104.24,-1336 98.24,-1336 92.24,-1330 92.24,-1324 92.24,-1324 92.24,-1312 92.24,-1312 92.24,-1306 98.24,-1300 104.24,-1300 104.24,-1300 197.24,-1300 197.24,-1300 203.24,-1300 209.24,-1306 209.24,-1312 209.24,-1312 209.24,-1324 209.24,-1324 209.24,-1330 203.24,-1336 197.24,-1336"/>
<text text-anchor="middle" x="150.74" y="-1314.3" font-family="Times,serif" font-size="14.00">open_story_pr</text>
</g>
<!-- commit_story_pr&#45;&gt;open_story_pr -->
<g id="edge12" class="edge">
<title>commit_story_pr&#45;&gt;open_story_pr</title>
<path fill="none" stroke="darkblue" d="M150.74,-1383.61C150.74,-1372.77 150.74,-1358.6 150.74,-1346.29"/>
<polygon fill="darkblue" stroke="darkblue" points="154.24,-1346.08 150.74,-1336.08 147.24,-1346.08 154.24,-1346.08"/>
</g>
<!-- open_story_pr&#45;&gt;done -->
<g id="edge13" class="edge">
<title>open_story_pr&#45;&gt;done</title>
<path fill="none" stroke="darkblue" d="M150.74,-1299.94C150.74,-1291.99 150.74,-1282.31 150.74,-1273.31"/>
<polygon fill="darkblue" stroke="darkblue" points="154.24,-1273.2 150.74,-1263.2 147.24,-1273.2 154.24,-1273.2"/>
</g>
<!-- dev__plan -->
<g id="node16" class="node">
<title>dev__plan</title>
<path fill="lightblue" stroke="black" d="M1827.74,-2033C1827.74,-2033 1797.74,-2033 1797.74,-2033 1791.74,-2033 1785.74,-2027 1785.74,-2021 1785.74,-2021 1785.74,-2009 1785.74,-2009 1785.74,-2003 1791.74,-1997 1797.74,-1997 1797.74,-1997 1827.74,-1997 1827.74,-1997 1833.74,-1997 1839.74,-2003 1839.74,-2009 1839.74,-2009 1839.74,-2021 1839.74,-2021 1839.74,-2027 1833.74,-2033 1827.74,-2033"/>
<text text-anchor="middle" x="1812.74" y="-2011.3" font-family="Times,serif" font-size="14.00">plan</text>
</g>
<!-- dev__reset_plan&#45;&gt;dev__plan -->
<g id="edge15" class="edge">
<title>dev__reset_plan&#45;&gt;dev__plan</title>
<path fill="none" stroke="darkblue" d="M1812.74,-2098.94C1812.74,-2083.53 1812.74,-2061.13 1812.74,-2043.49"/>
<polygon fill="darkblue" stroke="darkblue" points="1816.24,-2043.23 1812.74,-2033.23 1809.24,-2043.23 1816.24,-2043.23"/>
</g>
<!-- dev__decide_plan -->
<g id="node17" class="node">
<title>dev__decide_plan</title>
<path fill="lightsalmon" stroke="black" d="M1800.96,-1946.71C1800.96,-1946.71 1731.85,-1933.29 1731.85,-1933.29 1725.96,-1932.14 1725.96,-1929.86 1731.85,-1928.71 1731.85,-1928.71 1800.96,-1915.29 1800.96,-1915.29 1806.85,-1914.14 1818.63,-1914.14 1824.52,-1915.29 1824.52,-1915.29 1893.63,-1928.71 1893.63,-1928.71 1899.52,-1929.86 1899.52,-1932.14 1893.63,-1933.29 1893.63,-1933.29 1824.52,-1946.71 1824.52,-1946.71 1818.63,-1947.86 1806.85,-1947.86 1800.96,-1946.71"/>
<text text-anchor="middle" x="1812.74" y="-1927.3" font-family="Times,serif" font-size="14.00">decide_plan</text>
</g>
<!-- dev__plan&#45;&gt;dev__decide_plan -->
<g id="edge16" class="edge">
<title>dev__plan&#45;&gt;dev__decide_plan</title>
<path fill="none" stroke="darkblue" d="M1812.74,-1996.61C1812.74,-1985.77 1812.74,-1971.6 1812.74,-1959.29"/>
<polygon fill="darkblue" stroke="darkblue" points="1816.24,-1959.08 1812.74,-1949.08 1809.24,-1959.08 1816.24,-1959.08"/>
</g>
<!-- dev__gate_plan -->
<g id="node19" class="node">
<title>dev__gate_plan</title>
<path fill="lightsalmon" stroke="black" d="M1703.04,-1862.34C1703.04,-1862.34 1647.35,-1849.66 1647.35,-1849.66 1641.5,-1848.33 1641.5,-1845.67 1647.35,-1844.34 1647.35,-1844.34 1703.04,-1831.66 1703.04,-1831.66 1708.89,-1830.33 1720.59,-1830.33 1726.44,-1831.66 1726.44,-1831.66 1782.14,-1844.34 1782.14,-1844.34 1787.99,-1845.67 1787.99,-1848.33 1782.14,-1849.66 1782.14,-1849.66 1726.44,-1862.34 1726.44,-1862.34 1720.59,-1863.67 1708.89,-1863.67 1703.04,-1862.34"/>
<text text-anchor="middle" x="1714.74" y="-1843.3" font-family="Times,serif" font-size="14.00">gate_plan</text>
</g>
<!-- dev__decide_plan&#45;&gt;dev__gate_plan -->
<g id="edge18" class="edge">
<title>dev__decide_plan&#45;&gt;dev__gate_plan</title>
<path fill="none" stroke="darkblue" d="M1795.09,-1916.14C1786.73,-1909.52 1776.66,-1901.43 1767.74,-1894 1757.9,-1885.8 1747.19,-1876.57 1738,-1868.54"/>
<polygon fill="darkblue" stroke="darkblue" points="1740.2,-1865.81 1730.37,-1861.85 1735.58,-1871.08 1740.2,-1865.81"/>
<text text-anchor="middle" x="1787.74" y="-1886" font-family="Times,serif" font-size="10.00">blocked</text>
</g>
<!-- dev__resolve_impl_context -->
<g id="node24" class="node">
<title>dev__resolve_impl_context</title>
<path fill="lightblue" stroke="black" d="M1986.24,-1865C1986.24,-1865 1843.24,-1865 1843.24,-1865 1837.24,-1865 1831.24,-1859 1831.24,-1853 1831.24,-1853 1831.24,-1841 1831.24,-1841 1831.24,-1835 1837.24,-1829 1843.24,-1829 1843.24,-1829 1986.24,-1829 1986.24,-1829 1992.24,-1829 1998.24,-1835 1998.24,-1841 1998.24,-1841 1998.24,-1853 1998.24,-1853 1998.24,-1859 1992.24,-1865 1986.24,-1865"/>
<text text-anchor="middle" x="1914.74" y="-1843.3" font-family="Times,serif" font-size="14.00">resolve_impl_context</text>
</g>
<!-- dev__decide_plan&#45;&gt;dev__resolve_impl_context -->
<g id="edge17" class="edge">
<title>dev__decide_plan&#45;&gt;dev__resolve_impl_context</title>
<path fill="none" stroke="darkblue" d="M1830.04,-1916.09C1845.23,-1903.89 1867.62,-1885.88 1885.56,-1871.46"/>
<polygon fill="darkblue" stroke="darkblue" points="1887.86,-1874.11 1893.46,-1865.11 1883.47,-1868.65 1887.86,-1874.11"/>
<text text-anchor="middle" x="1902.24" y="-1886" font-family="Times,serif" font-size="10.00">done|default</text>
</g>
<!-- dev__rework_plan -->
<g id="node18" class="node">
<title>dev__rework_plan</title>
<path fill="lightblue" stroke="black" d="M1965.74,-1504C1965.74,-1504 1885.74,-1504 1885.74,-1504 1879.74,-1504 1873.74,-1498 1873.74,-1492 1873.74,-1492 1873.74,-1480 1873.74,-1480 1873.74,-1474 1879.74,-1468 1885.74,-1468 1885.74,-1468 1965.74,-1468 1965.74,-1468 1971.74,-1468 1977.74,-1474 1977.74,-1480 1977.74,-1480 1977.74,-1492 1977.74,-1492 1977.74,-1498 1971.74,-1504 1965.74,-1504"/>
<text text-anchor="middle" x="1925.74" y="-1482.3" font-family="Times,serif" font-size="14.00">rework_plan</text>
</g>
<!-- dev__rework_plan&#45;&gt;dev__decide_plan -->
<g id="edge19" class="edge">
<title>dev__rework_plan&#45;&gt;dev__decide_plan</title>
<path fill="none" stroke="darkblue" d="M1940.58,-1504.12C1950.11,-1516.29 1961.62,-1533.52 1966.74,-1551 1971.24,-1566.36 1971.6,-1571.75 1966.74,-1587 1949.72,-1640.46 1922.8,-1642 1893.74,-1690 1875.78,-1719.67 1832.51,-1795.72 1822.74,-1829 1815.63,-1853.22 1813.35,-1881.96 1812.72,-1902.58"/>
<polygon fill="darkblue" stroke="darkblue" points="1809.21,-1902.77 1812.52,-1912.83 1816.21,-1902.9 1809.21,-1902.77"/>
</g>
<!-- dev__resolve_plan -->
<g id="node20" class="node">
<title>dev__resolve_plan</title>
<path fill="lightblue" stroke="black" d="M1749.74,-1781C1749.74,-1781 1667.74,-1781 1667.74,-1781 1661.74,-1781 1655.74,-1775 1655.74,-1769 1655.74,-1769 1655.74,-1757 1655.74,-1757 1655.74,-1751 1661.74,-1745 1667.74,-1745 1667.74,-1745 1749.74,-1745 1749.74,-1745 1755.74,-1745 1761.74,-1751 1761.74,-1757 1761.74,-1757 1761.74,-1769 1761.74,-1769 1761.74,-1775 1755.74,-1781 1749.74,-1781"/>
<text text-anchor="middle" x="1708.74" y="-1759.3" font-family="Times,serif" font-size="14.00">resolve_plan</text>
</g>
<!-- dev__gate_plan&#45;&gt;dev__resolve_plan -->
<g id="edge21" class="edge">
<title>dev__gate_plan&#45;&gt;dev__resolve_plan</title>
<path fill="none" stroke="darkblue" d="M1713.5,-1829.01C1712.71,-1818.2 1711.66,-1803.95 1710.76,-1791.54"/>
<polygon fill="darkblue" stroke="darkblue" points="1714.22,-1790.97 1710,-1781.25 1707.24,-1791.48 1714.22,-1790.97"/>
<text text-anchor="middle" x="1742.74" y="-1803" font-family="Times,serif" font-size="10.00">auto|default</text>
</g>
<!-- dev__await_operator -->
<g id="node21" class="node">
<title>dev__await_operator</title>
<path fill="lightblue" stroke="black" d="M1842.74,-1671C1842.74,-1671 1742.74,-1671 1742.74,-1671 1736.74,-1671 1730.74,-1665 1730.74,-1659 1730.74,-1659 1730.74,-1647 1730.74,-1647 1730.74,-1641 1736.74,-1635 1742.74,-1635 1742.74,-1635 1842.74,-1635 1842.74,-1635 1848.74,-1635 1854.74,-1641 1854.74,-1647 1854.74,-1647 1854.74,-1659 1854.74,-1659 1854.74,-1665 1848.74,-1671 1842.74,-1671"/>
<text text-anchor="middle" x="1792.74" y="-1649.3" font-family="Times,serif" font-size="14.00">await_operator</text>
</g>
<!-- dev__gate_plan&#45;&gt;dev__await_operator -->
<g id="edge20" class="edge">
<title>dev__gate_plan&#45;&gt;dev__await_operator</title>
<path fill="none" stroke="darkblue" d="M1745.82,-1835.92C1757.74,-1830.45 1770.27,-1822.41 1777.74,-1811 1803.45,-1771.72 1801.45,-1714.64 1797.33,-1681.21"/>
<polygon fill="darkblue" stroke="darkblue" points="1800.78,-1680.67 1795.95,-1671.25 1793.85,-1681.63 1800.78,-1680.67"/>
<text text-anchor="middle" x="1817.24" y="-1760.5" font-family="Times,serif" font-size="10.00">human</text>
</g>
<!-- dev__resolve_plan&#45;&gt;dev__await_operator -->
<g id="edge22" class="edge">
<title>dev__resolve_plan&#45;&gt;dev__await_operator</title>
<path fill="none" stroke="darkblue" d="M1722.24,-1744.65C1735.95,-1727.01 1757.35,-1699.51 1772.97,-1679.41"/>
<polygon fill="darkblue" stroke="darkblue" points="1775.9,-1681.35 1779.28,-1671.31 1770.38,-1677.05 1775.9,-1681.35"/>
</g>
<!-- dev__decide_operator_scope -->
<g id="node22" class="node">
<title>dev__decide_operator_scope</title>
<path fill="lightsalmon" stroke="black" d="M1780.81,-1585.7C1780.81,-1585.7 1640.11,-1570.3 1640.11,-1570.3 1634.15,-1569.65 1634.15,-1568.35 1640.11,-1567.7 1640.11,-1567.7 1780.81,-1552.3 1780.81,-1552.3 1786.78,-1551.65 1798.71,-1551.65 1804.67,-1552.3 1804.67,-1552.3 1945.37,-1567.7 1945.37,-1567.7 1951.34,-1568.35 1951.34,-1569.65 1945.37,-1570.3 1945.37,-1570.3 1804.67,-1585.7 1804.67,-1585.7 1798.71,-1586.35 1786.78,-1586.35 1780.81,-1585.7"/>
<text text-anchor="middle" x="1792.74" y="-1565.3" font-family="Times,serif" font-size="14.00">decide_operator_scope</text>
</g>
<!-- dev__await_operator&#45;&gt;dev__decide_operator_scope -->
<g id="edge23" class="edge">
<title>dev__await_operator&#45;&gt;dev__decide_operator_scope</title>
<path fill="none" stroke="darkblue" d="M1792.74,-1634.61C1792.74,-1623.77 1792.74,-1609.6 1792.74,-1597.29"/>
<polygon fill="darkblue" stroke="darkblue" points="1796.24,-1597.08 1792.74,-1587.08 1789.24,-1597.08 1796.24,-1597.08"/>
</g>
<!-- dev__decide_operator_scope&#45;&gt;dev__rework_plan -->
<g id="edge25" class="edge">
<title>dev__decide_operator_scope&#45;&gt;dev__rework_plan</title>
<path fill="none" stroke="darkblue" d="M1816.52,-1553.52C1836.66,-1541.25 1865.87,-1523.46 1889.01,-1509.37"/>
<polygon fill="darkblue" stroke="darkblue" points="1890.84,-1512.36 1897.56,-1504.17 1887.19,-1506.38 1890.84,-1512.36"/>
<text text-anchor="middle" x="1899.24" y="-1525" font-family="Times,serif" font-size="10.00">story|default</text>
</g>
<!-- dev__mark_dev_replan -->
<g id="node23" class="node">
<title>dev__mark_dev_replan</title>
<path fill="lightblue" stroke="black" d="M1843.74,-1504C1843.74,-1504 1729.74,-1504 1729.74,-1504 1723.74,-1504 1717.74,-1498 1717.74,-1492 1717.74,-1492 1717.74,-1480 1717.74,-1480 1717.74,-1474 1723.74,-1468 1729.74,-1468 1729.74,-1468 1843.74,-1468 1843.74,-1468 1849.74,-1468 1855.74,-1474 1855.74,-1480 1855.74,-1480 1855.74,-1492 1855.74,-1492 1855.74,-1498 1849.74,-1504 1843.74,-1504"/>
<text text-anchor="middle" x="1786.74" y="-1482.3" font-family="Times,serif" font-size="14.00">mark_dev_replan</text>
</g>
<!-- dev__decide_operator_scope&#45;&gt;dev__mark_dev_replan -->
<g id="edge24" class="edge">
<title>dev__decide_operator_scope&#45;&gt;dev__mark_dev_replan</title>
<path fill="none" stroke="darkblue" d="M1791.47,-1550.82C1790.68,-1540.19 1789.65,-1526.31 1788.76,-1514.2"/>
<polygon fill="darkblue" stroke="darkblue" points="1792.24,-1513.87 1788.01,-1504.15 1785.26,-1514.38 1792.24,-1513.87"/>
<text text-anchor="middle" x="1800.74" y="-1525" font-family="Times,serif" font-size="10.00">epic</text>
</g>
<!-- dev__dev_done -->
<g id="node26" class="node">
<title>dev__dev_done</title>
<path fill="lightgreen" stroke="black" d="M1902.74,-1421C1902.74,-1421 1838.74,-1421 1838.74,-1421 1832.74,-1421 1826.74,-1415 1826.74,-1409 1826.74,-1409 1826.74,-1395 1826.74,-1395 1826.74,-1389 1832.74,-1383 1838.74,-1383 1838.74,-1383 1902.74,-1383 1902.74,-1383 1908.74,-1383 1914.74,-1389 1914.74,-1395 1914.74,-1395 1914.74,-1409 1914.74,-1409 1914.74,-1415 1908.74,-1421 1902.74,-1421"/>
<text text-anchor="middle" x="1870.74" y="-1405.8" font-family="Times,serif" font-size="14.00">dev_done</text>
<text text-anchor="middle" x="1870.74" y="-1390.8" font-family="Times,serif" font-size="14.00">(terminal)</text>
</g>
<!-- dev__mark_dev_replan&#45;&gt;dev__dev_done -->
<g id="edge26" class="edge">
<title>dev__mark_dev_replan&#45;&gt;dev__dev_done</title>
<path fill="none" stroke="darkblue" d="M1804.56,-1467.61C1816.23,-1456.21 1831.69,-1441.12 1844.73,-1428.39"/>
<polygon fill="darkblue" stroke="darkblue" points="1847.37,-1430.71 1852.08,-1421.22 1842.48,-1425.7 1847.37,-1430.71"/>
</g>
<!-- dev__implement -->
<g id="node25" class="node">
<title>dev__implement</title>
<path fill="lightblue" stroke="black" d="M1983.24,-1726C1983.24,-1726 1914.24,-1726 1914.24,-1726 1908.24,-1726 1902.24,-1720 1902.24,-1714 1902.24,-1714 1902.24,-1702 1902.24,-1702 1902.24,-1696 1908.24,-1690 1914.24,-1690 1914.24,-1690 1983.24,-1690 1983.24,-1690 1989.24,-1690 1995.24,-1696 1995.24,-1702 1995.24,-1702 1995.24,-1714 1995.24,-1714 1995.24,-1720 1989.24,-1726 1983.24,-1726"/>
<text text-anchor="middle" x="1948.74" y="-1704.3" font-family="Times,serif" font-size="14.00">implement</text>
</g>
<!-- dev__resolve_impl_context&#45;&gt;dev__implement -->
<g id="edge27" class="edge">
<title>dev__resolve_impl_context&#45;&gt;dev__implement</title>
<path fill="none" stroke="darkblue" d="M1918.98,-1828.93C1924.76,-1805.65 1935.17,-1763.7 1942.02,-1736.1"/>
<polygon fill="darkblue" stroke="darkblue" points="1945.44,-1736.84 1944.45,-1726.29 1938.65,-1735.15 1945.44,-1736.84"/>
</g>
<!-- dev__implement&#45;&gt;dev__dev_done -->
<g id="edge28" class="edge">
<title>dev__implement&#45;&gt;dev__dev_done</title>
<path fill="none" stroke="darkblue" d="M1963.4,-1689.99C1977.52,-1671.82 1996.74,-1641.56 1996.74,-1611.5 1996.74,-1611.5 1996.74,-1611.5 1996.74,-1485 1996.74,-1448.26 1958.65,-1427.13 1924.35,-1415.55"/>
<polygon fill="darkblue" stroke="darkblue" points="1925.4,-1412.22 1914.81,-1412.54 1923.29,-1418.89 1925.4,-1412.22"/>
</g>
<!-- review__decide_impl -->
<g id="node28" class="node">
<title>review__decide_impl</title>
<path fill="lightsalmon" stroke="black" d="M1381.96,-2030.71C1381.96,-2030.71 1312.85,-2017.29 1312.85,-2017.29 1306.96,-2016.14 1306.96,-2013.86 1312.85,-2012.71 1312.85,-2012.71 1381.96,-1999.29 1381.96,-1999.29 1387.85,-1998.14 1399.63,-1998.14 1405.52,-1999.29 1405.52,-1999.29 1474.63,-2012.71 1474.63,-2012.71 1480.52,-2013.86 1480.52,-2016.14 1474.63,-2017.29 1474.63,-2017.29 1405.52,-2030.71 1405.52,-2030.71 1399.63,-2031.86 1387.85,-2031.86 1381.96,-2030.71"/>
<text text-anchor="middle" x="1393.74" y="-2011.3" font-family="Times,serif" font-size="14.00">decide_impl</text>
</g>
<!-- review__review_implementation&#45;&gt;review__decide_impl -->
<g id="edge29" class="edge">
<title>review__review_implementation&#45;&gt;review__decide_impl</title>
<path fill="none" stroke="darkblue" d="M1448.76,-2098.94C1437.87,-2082.52 1421.7,-2058.14 1409.71,-2040.07"/>
<polygon fill="darkblue" stroke="darkblue" points="1412.31,-2037.66 1403.87,-2031.26 1406.48,-2041.53 1412.31,-2037.66"/>
</g>
<!-- review__apply_review -->
<g id="node29" class="node">
<title>review__apply_review</title>
<path fill="lightblue" stroke="black" d="M1520.74,-1949C1520.74,-1949 1434.74,-1949 1434.74,-1949 1428.74,-1949 1422.74,-1943 1422.74,-1937 1422.74,-1937 1422.74,-1925 1422.74,-1925 1422.74,-1919 1428.74,-1913 1434.74,-1913 1434.74,-1913 1520.74,-1913 1520.74,-1913 1526.74,-1913 1532.74,-1919 1532.74,-1925 1532.74,-1925 1532.74,-1937 1532.74,-1937 1532.74,-1943 1526.74,-1949 1520.74,-1949"/>
<text text-anchor="middle" x="1477.74" y="-1927.3" font-family="Times,serif" font-size="14.00">apply_review</text>
</g>
<!-- review__decide_impl&#45;&gt;review__apply_review -->
<g id="edge31" class="edge">
<title>review__decide_impl&#45;&gt;review__apply_review</title>
<path fill="none" stroke="darkblue" d="M1389.96,-1997.37C1388.79,-1987.99 1389.04,-1976.49 1394.74,-1968 1399.59,-1960.78 1406.22,-1955.01 1413.64,-1950.38"/>
<polygon fill="darkblue" stroke="darkblue" points="1415.54,-1953.33 1422.64,-1945.46 1412.19,-1947.18 1415.54,-1953.33"/>
<text text-anchor="middle" x="1453.74" y="-1971" font-family="Times,serif" font-size="10.00">needs_changes|default</text>
</g>
<!-- review__check_impl_feedback -->
<g id="node30" class="node">
<title>review__check_impl_feedback</title>
<path fill="lightblue" stroke="black" d="M1392.74,-1949C1392.74,-1949 1250.74,-1949 1250.74,-1949 1244.74,-1949 1238.74,-1943 1238.74,-1937 1238.74,-1937 1238.74,-1925 1238.74,-1925 1238.74,-1919 1244.74,-1913 1250.74,-1913 1250.74,-1913 1392.74,-1913 1392.74,-1913 1398.74,-1913 1404.74,-1919 1404.74,-1925 1404.74,-1925 1404.74,-1937 1404.74,-1937 1404.74,-1943 1398.74,-1949 1392.74,-1949"/>
<text text-anchor="middle" x="1321.74" y="-1927.3" font-family="Times,serif" font-size="14.00">check_impl_feedback</text>
</g>
<!-- review__decide_impl&#45;&gt;review__check_impl_feedback -->
<g id="edge30" class="edge">
<title>review__decide_impl&#45;&gt;review__check_impl_feedback</title>
<path fill="none" stroke="darkblue" d="M1356.12,-2004.23C1343.32,-1998.94 1330.34,-1990.94 1322.74,-1979 1319.12,-1973.31 1317.73,-1966.39 1317.51,-1959.63"/>
<polygon fill="darkblue" stroke="darkblue" points="1321.02,-1959.49 1317.98,-1949.34 1314.03,-1959.17 1321.02,-1959.49"/>
<text text-anchor="middle" x="1347.24" y="-1971" font-family="Times,serif" font-size="10.00">approved</text>
</g>
<!-- review__apply_review&#45;&gt;review__review_implementation -->
<g id="edge32" class="edge">
<title>review__apply_review&#45;&gt;review__review_implementation</title>
<path fill="none" stroke="darkblue" d="M1499.82,-1949.35C1505.05,-1954.71 1509.92,-1961.05 1512.74,-1968 1514.58,-1972.53 1513.48,-1974.17 1512.74,-1979 1506.58,-2019.12 1488.11,-2062.47 1474.93,-2089.67"/>
<polygon fill="darkblue" stroke="darkblue" points="1471.65,-2088.4 1470.35,-2098.92 1477.93,-2091.51 1471.65,-2088.4"/>
</g>
<!-- review__decide_impl_feedback -->
<g id="node31" class="node">
<title>review__decide_impl_feedback</title>
<path fill="lightsalmon" stroke="black" d="M1362.82,-1863.64C1362.82,-1863.64 1228.47,-1848.36 1228.47,-1848.36 1222.51,-1847.68 1222.51,-1846.32 1228.47,-1845.64 1228.47,-1845.64 1362.82,-1830.36 1362.82,-1830.36 1368.78,-1829.68 1380.7,-1829.68 1386.66,-1830.36 1386.66,-1830.36 1521.01,-1845.64 1521.01,-1845.64 1526.97,-1846.32 1526.97,-1847.68 1521.01,-1848.36 1521.01,-1848.36 1386.66,-1863.64 1386.66,-1863.64 1380.7,-1864.32 1368.78,-1864.32 1362.82,-1863.64"/>
<text text-anchor="middle" x="1374.74" y="-1843.3" font-family="Times,serif" font-size="14.00">decide_impl_feedback</text>
</g>
<!-- review__check_impl_feedback&#45;&gt;review__decide_impl_feedback -->
<g id="edge33" class="edge">
<title>review__check_impl_feedback&#45;&gt;review__decide_impl_feedback</title>
<path fill="none" stroke="darkblue" d="M1332.98,-1912.61C1340.54,-1900.92 1350.6,-1885.35 1358.96,-1872.42"/>
<polygon fill="darkblue" stroke="darkblue" points="1361.93,-1874.27 1364.42,-1863.97 1356.05,-1870.47 1361.93,-1874.27"/>
</g>
<!-- review__apply_impl_feedback -->
<g id="node32" class="node">
<title>review__apply_impl_feedback</title>
<path fill="lightblue" stroke="black" d="M1540.74,-1781C1540.74,-1781 1400.74,-1781 1400.74,-1781 1394.74,-1781 1388.74,-1775 1388.74,-1769 1388.74,-1769 1388.74,-1757 1388.74,-1757 1388.74,-1751 1394.74,-1745 1400.74,-1745 1400.74,-1745 1540.74,-1745 1540.74,-1745 1546.74,-1745 1552.74,-1751 1552.74,-1757 1552.74,-1757 1552.74,-1769 1552.74,-1769 1552.74,-1775 1546.74,-1781 1540.74,-1781"/>
<text text-anchor="middle" x="1470.74" y="-1759.3" font-family="Times,serif" font-size="14.00">apply_impl_feedback</text>
</g>
<!-- review__decide_impl_feedback&#45;&gt;review__apply_impl_feedback -->
<g id="edge34" class="edge">
<title>review__decide_impl_feedback&#45;&gt;review__apply_impl_feedback</title>
<path fill="none" stroke="darkblue" d="M1392.35,-1830.96C1406.49,-1818.88 1426.61,-1801.69 1442.93,-1787.76"/>
<polygon fill="darkblue" stroke="darkblue" points="1445.26,-1790.37 1450.59,-1781.21 1440.71,-1785.05 1445.26,-1790.37"/>
<text text-anchor="middle" x="1436.74" y="-1803" font-family="Times,serif" font-size="10.00">yes</text>
</g>
<!-- review__review_done -->
<g id="node33" class="node">
<title>review__review_done</title>
<path fill="lightgreen" stroke="black" d="M1358.74,-1782C1358.74,-1782 1276.74,-1782 1276.74,-1782 1270.74,-1782 1264.74,-1776 1264.74,-1770 1264.74,-1770 1264.74,-1756 1264.74,-1756 1264.74,-1750 1270.74,-1744 1276.74,-1744 1276.74,-1744 1358.74,-1744 1358.74,-1744 1364.74,-1744 1370.74,-1750 1370.74,-1756 1370.74,-1756 1370.74,-1770 1370.74,-1770 1370.74,-1776 1364.74,-1782 1358.74,-1782"/>
<text text-anchor="middle" x="1317.74" y="-1766.8" font-family="Times,serif" font-size="14.00">review_done</text>
<text text-anchor="middle" x="1317.74" y="-1751.8" font-family="Times,serif" font-size="14.00">(terminal)</text>
</g>
<!-- review__decide_impl_feedback&#45;&gt;review__review_done -->
<g id="edge35" class="edge">
<title>review__decide_impl_feedback&#45;&gt;review__review_done</title>
<path fill="none" stroke="darkblue" d="M1363.75,-1830.19C1355.9,-1818.89 1345.14,-1803.42 1336.01,-1790.28"/>
<polygon fill="darkblue" stroke="darkblue" points="1338.87,-1788.26 1330.29,-1782.05 1333.12,-1792.25 1338.87,-1788.26"/>
<text text-anchor="middle" x="1374.74" y="-1803" font-family="Times,serif" font-size="10.00">no|default</text>
</g>
<!-- review__apply_impl_feedback&#45;&gt;review__review_implementation -->
<g id="edge36" class="edge">
<title>review__apply_impl_feedback&#45;&gt;review__review_implementation</title>
<path fill="none" stroke="darkblue" d="M1504.16,-1781.1C1526.47,-1795.15 1551.74,-1817.38 1551.74,-1846 1551.74,-2016 1551.74,-2016 1551.74,-2016 1551.74,-2048.51 1525.39,-2075.28 1501.05,-2093.07"/>
<polygon fill="darkblue" stroke="darkblue" points="1498.77,-2090.39 1492.57,-2098.99 1502.77,-2096.14 1498.77,-2090.39"/>
</g>
<!-- qa__reset_qa -->
<g id="node35" class="node">
<title>qa__reset_qa</title>
<path fill="lightblue" stroke="black" d="M1059.24,-2033C1059.24,-2033 1006.24,-2033 1006.24,-2033 1000.24,-2033 994.24,-2027 994.24,-2021 994.24,-2021 994.24,-2009 994.24,-2009 994.24,-2003 1000.24,-1997 1006.24,-1997 1006.24,-1997 1059.24,-1997 1059.24,-1997 1065.24,-1997 1071.24,-2003 1071.24,-2009 1071.24,-2009 1071.24,-2021 1071.24,-2021 1071.24,-2027 1065.24,-2033 1059.24,-2033"/>
<text text-anchor="middle" x="1032.74" y="-2011.3" font-family="Times,serif" font-size="14.00">reset_qa</text>
</g>
<!-- qa__resolve_qa_context&#45;&gt;qa__reset_qa -->
<g id="edge37" class="edge">
<title>qa__resolve_qa_context&#45;&gt;qa__reset_qa</title>
<path fill="none" stroke="darkblue" d="M1032.74,-2098.94C1032.74,-2083.53 1032.74,-2061.13 1032.74,-2043.49"/>
<polygon fill="darkblue" stroke="darkblue" points="1036.24,-2043.23 1032.74,-2033.23 1029.24,-2043.23 1036.24,-2043.23"/>
</g>
<!-- qa__plan_qa -->
<g id="node36" class="node">
<title>qa__plan_qa</title>
<path fill="lightblue" stroke="black" d="M1056.24,-1949C1056.24,-1949 1009.24,-1949 1009.24,-1949 1003.24,-1949 997.24,-1943 997.24,-1937 997.24,-1937 997.24,-1925 997.24,-1925 997.24,-1919 1003.24,-1913 1009.24,-1913 1009.24,-1913 1056.24,-1913 1056.24,-1913 1062.24,-1913 1068.24,-1919 1068.24,-1925 1068.24,-1925 1068.24,-1937 1068.24,-1937 1068.24,-1943 1062.24,-1949 1056.24,-1949"/>
<text text-anchor="middle" x="1032.74" y="-1927.3" font-family="Times,serif" font-size="14.00">plan_qa</text>
</g>
<!-- qa__reset_qa&#45;&gt;qa__plan_qa -->
<g id="edge38" class="edge">
<title>qa__reset_qa&#45;&gt;qa__plan_qa</title>
<path fill="none" stroke="darkblue" d="M1032.74,-1996.61C1032.74,-1985.77 1032.74,-1971.6 1032.74,-1959.29"/>
<polygon fill="darkblue" stroke="darkblue" points="1036.24,-1959.08 1032.74,-1949.08 1029.24,-1959.08 1036.24,-1959.08"/>
</g>
<!-- qa__qa -->
<g id="node37" class="node">
<title>qa__qa</title>
<path fill="lightblue" stroke="black" d="M1047.74,-1865C1047.74,-1865 1017.74,-1865 1017.74,-1865 1011.74,-1865 1005.74,-1859 1005.74,-1853 1005.74,-1853 1005.74,-1841 1005.74,-1841 1005.74,-1835 1011.74,-1829 1017.74,-1829 1017.74,-1829 1047.74,-1829 1047.74,-1829 1053.74,-1829 1059.74,-1835 1059.74,-1841 1059.74,-1841 1059.74,-1853 1059.74,-1853 1059.74,-1859 1053.74,-1865 1047.74,-1865"/>
<text text-anchor="middle" x="1032.74" y="-1843.3" font-family="Times,serif" font-size="14.00">qa</text>
</g>
<!-- qa__plan_qa&#45;&gt;qa__qa -->
<g id="edge39" class="edge">
<title>qa__plan_qa&#45;&gt;qa__qa</title>
<path fill="none" stroke="darkblue" d="M1032.74,-1912.61C1032.74,-1901.77 1032.74,-1887.6 1032.74,-1875.29"/>
<polygon fill="darkblue" stroke="darkblue" points="1036.24,-1875.08 1032.74,-1865.08 1029.24,-1875.08 1036.24,-1875.08"/>
</g>
<!-- qa__verify_qa -->
<g id="node38" class="node">
<title>qa__verify_qa</title>
<path fill="lightblue" stroke="black" d="M1037.74,-1781C1037.74,-1781 979.74,-1781 979.74,-1781 973.74,-1781 967.74,-1775 967.74,-1769 967.74,-1769 967.74,-1757 967.74,-1757 967.74,-1751 973.74,-1745 979.74,-1745 979.74,-1745 1037.74,-1745 1037.74,-1745 1043.74,-1745 1049.74,-1751 1049.74,-1757 1049.74,-1757 1049.74,-1769 1049.74,-1769 1049.74,-1775 1043.74,-1781 1037.74,-1781"/>
<text text-anchor="middle" x="1008.74" y="-1759.3" font-family="Times,serif" font-size="14.00">verify_qa</text>
</g>
<!-- qa__qa&#45;&gt;qa__verify_qa -->
<g id="edge40" class="edge">
<title>qa__qa&#45;&gt;qa__verify_qa</title>
<path fill="none" stroke="darkblue" d="M1027.65,-1828.61C1024.45,-1817.66 1020.25,-1803.31 1016.62,-1790.92"/>
<polygon fill="darkblue" stroke="darkblue" points="1019.91,-1789.7 1013.74,-1781.08 1013.19,-1791.66 1019.91,-1789.7"/>
</g>
<!-- qa__decide_verify -->
<g id="node39" class="node">
<title>qa__decide_verify</title>
<path fill="lightsalmon" stroke="black" d="M944.92,-1668.92C944.92,-1668.92 866.51,-1655.08 866.51,-1655.08 860.6,-1654.04 860.6,-1651.96 866.51,-1650.92 866.51,-1650.92 944.92,-1637.08 944.92,-1637.08 950.83,-1636.04 962.65,-1636.04 968.56,-1637.08 968.56,-1637.08 1046.98,-1650.92 1046.98,-1650.92 1052.89,-1651.96 1052.89,-1654.04 1046.98,-1655.08 1046.98,-1655.08 968.56,-1668.92 968.56,-1668.92 962.65,-1669.96 950.83,-1669.96 944.92,-1668.92"/>
<text text-anchor="middle" x="956.74" y="-1649.3" font-family="Times,serif" font-size="14.00">decide_verify</text>
</g>
<!-- qa__verify_qa&#45;&gt;qa__decide_verify -->
<g id="edge41" class="edge">
<title>qa__verify_qa&#45;&gt;qa__decide_verify</title>
<path fill="none" stroke="darkblue" d="M1000.39,-1744.65C991.85,-1726.92 978.51,-1699.21 968.82,-1679.09"/>
<polygon fill="darkblue" stroke="darkblue" points="971.89,-1677.39 964.4,-1669.9 965.58,-1680.43 971.89,-1677.39"/>
</g>
<!-- qa__audit_qa -->
<g id="node40" class="node">
<title>qa__audit_qa</title>
<path fill="lightblue" stroke="black" d="M908.24,-1587C908.24,-1587 855.24,-1587 855.24,-1587 849.24,-1587 843.24,-1581 843.24,-1575 843.24,-1575 843.24,-1563 843.24,-1563 843.24,-1557 849.24,-1551 855.24,-1551 855.24,-1551 908.24,-1551 908.24,-1551 914.24,-1551 920.24,-1557 920.24,-1563 920.24,-1563 920.24,-1575 920.24,-1575 920.24,-1581 914.24,-1587 908.24,-1587"/>
<text text-anchor="middle" x="881.74" y="-1565.3" font-family="Times,serif" font-size="14.00">audit_qa</text>
</g>
<!-- qa__decide_verify&#45;&gt;qa__audit_qa -->
<g id="edge42" class="edge">
<title>qa__decide_verify&#45;&gt;qa__audit_qa</title>
<path fill="none" stroke="darkblue" d="M938.73,-1638.17C930.96,-1631.81 922.01,-1623.93 914.74,-1616 909.04,-1609.79 903.46,-1602.57 898.55,-1595.73"/>
<polygon fill="darkblue" stroke="darkblue" points="901.32,-1593.57 892.74,-1587.35 895.57,-1597.56 901.32,-1593.57"/>
<text text-anchor="middle" x="933.24" y="-1608" font-family="Times,serif" font-size="10.00">passed</text>
</g>
<!-- qa__file_backlog_items -->
<g id="node41" class="node">
<title>qa__file_backlog_items</title>
<path fill="lightblue" stroke="black" d="M1017.74,-1504C1017.74,-1504 895.74,-1504 895.74,-1504 889.74,-1504 883.74,-1498 883.74,-1492 883.74,-1492 883.74,-1480 883.74,-1480 883.74,-1474 889.74,-1468 895.74,-1468 895.74,-1468 1017.74,-1468 1017.74,-1468 1023.74,-1468 1029.74,-1474 1029.74,-1480 1029.74,-1480 1029.74,-1492 1029.74,-1492 1029.74,-1498 1023.74,-1504 1017.74,-1504"/>
<text text-anchor="middle" x="956.74" y="-1482.3" font-family="Times,serif" font-size="14.00">file_backlog_items</text>
</g>
<!-- qa__decide_verify&#45;&gt;qa__file_backlog_items -->
<g id="edge43" class="edge">
<title>qa__decide_verify&#45;&gt;qa__file_backlog_items</title>
<path fill="none" stroke="darkblue" d="M956.74,-1634.96C956.74,-1606.43 956.74,-1548.75 956.74,-1514.44"/>
<polygon fill="darkblue" stroke="darkblue" points="960.24,-1514.19 956.74,-1504.19 953.24,-1514.19 960.24,-1514.19"/>
<text text-anchor="middle" x="1012.24" y="-1566.5" font-family="Times,serif" font-size="10.00">failed|blocked|default</text>
</g>
<!-- qa__audit_qa&#45;&gt;qa__file_backlog_items -->
<g id="edge44" class="edge">
<title>qa__audit_qa&#45;&gt;qa__file_backlog_items</title>
<path fill="none" stroke="darkblue" d="M897.65,-1550.82C908.19,-1539.44 922.18,-1524.33 933.9,-1511.66"/>
<polygon fill="darkblue" stroke="darkblue" points="936.63,-1513.87 940.86,-1504.15 931.5,-1509.11 936.63,-1513.87"/>
</g>
<!-- qa__decide_qa -->
<g id="node42" class="node">
<title>qa__decide_qa</title>
<path fill="lightsalmon" stroke="black" d="M961.03,-1417.36C961.03,-1417.36 904.52,-1404.64 904.52,-1404.64 898.66,-1403.32 898.66,-1400.68 904.52,-1399.36 904.52,-1399.36 961.03,-1386.64 961.03,-1386.64 966.89,-1385.32 978.6,-1385.32 984.45,-1386.64 984.45,-1386.64 1040.97,-1399.36 1040.97,-1399.36 1046.82,-1400.68 1046.82,-1403.32 1040.97,-1404.64 1040.97,-1404.64 984.45,-1417.36 984.45,-1417.36 978.6,-1418.68 966.89,-1418.68 961.03,-1417.36"/>
<text text-anchor="middle" x="972.74" y="-1398.3" font-family="Times,serif" font-size="14.00">decide_qa</text>
</g>
<!-- qa__file_backlog_items&#45;&gt;qa__decide_qa -->
<g id="edge45" class="edge">
<title>qa__file_backlog_items&#45;&gt;qa__decide_qa</title>
<path fill="none" stroke="darkblue" d="M960.13,-1467.61C962.3,-1456.52 965.15,-1441.93 967.59,-1429.42"/>
<polygon fill="darkblue" stroke="darkblue" points="971.04,-1430.01 969.52,-1419.53 964.17,-1428.67 971.04,-1430.01"/>
</g>
<!-- qa__check_qa_feedback -->
<g id="node43" class="node">
<title>qa__check_qa_feedback</title>
<path fill="lightblue" stroke="black" d="M946.74,-1336C946.74,-1336 818.74,-1336 818.74,-1336 812.74,-1336 806.74,-1330 806.74,-1324 806.74,-1324 806.74,-1312 806.74,-1312 806.74,-1306 812.74,-1300 818.74,-1300 818.74,-1300 946.74,-1300 946.74,-1300 952.74,-1300 958.74,-1306 958.74,-1312 958.74,-1312 958.74,-1324 958.74,-1324 958.74,-1330 952.74,-1336 946.74,-1336"/>
<text text-anchor="middle" x="882.74" y="-1314.3" font-family="Times,serif" font-size="14.00">check_qa_feedback</text>
</g>
<!-- qa__decide_qa&#45;&gt;qa__check_qa_feedback -->
<g id="edge46" class="edge">
<title>qa__decide_qa&#45;&gt;qa__check_qa_feedback</title>
<path fill="none" stroke="darkblue" d="M957.47,-1387.09C944.2,-1375 924.68,-1357.21 908.92,-1342.85"/>
<polygon fill="darkblue" stroke="darkblue" points="911.27,-1340.26 901.52,-1336.11 906.56,-1345.43 911.27,-1340.26"/>
<text text-anchor="middle" x="951.24" y="-1357" font-family="Times,serif" font-size="10.00">passed</text>
</g>
<!-- qa__guard_qa -->
<g id="node54" class="node">
<title>qa__guard_qa</title>
<path fill="lightsalmon" stroke="black" d="M810.06,-604.24C810.06,-604.24 757.34,-591.76 757.34,-591.76 751.5,-590.38 751.5,-587.62 757.34,-586.24 757.34,-586.24 810.06,-573.76 810.06,-573.76 815.9,-572.38 827.58,-572.38 833.42,-573.76 833.42,-573.76 886.14,-586.24 886.14,-586.24 891.98,-587.62 891.98,-590.38 886.14,-591.76 886.14,-591.76 833.42,-604.24 833.42,-604.24 827.58,-605.62 815.9,-605.62 810.06,-604.24"/>
<text text-anchor="middle" x="821.74" y="-585.3" font-family="Times,serif" font-size="14.00">guard_qa</text>
</g>
<!-- qa__decide_qa&#45;&gt;qa__guard_qa -->
<g id="edge47" class="edge">
<title>qa__decide_qa&#45;&gt;qa__guard_qa</title>
<path fill="none" stroke="darkblue" d="M979.89,-1385.34C986.64,-1369.1 995.74,-1342.8 995.74,-1319 995.74,-1319 995.74,-1319 995.74,-1200.5 995.74,-1183.39 984.64,-909.06 978.74,-893 973.16,-877.81 969.25,-874.26 956.74,-864 942.61,-852.4 929.44,-861.5 919.74,-846 899.24,-813.23 936.08,-800.43 945.74,-763 949.74,-747.51 947.77,-742.87 945.74,-727 939.56,-678.7 943.93,-655.22 905.74,-625 893.66,-615.44 878.6,-608.09 864.58,-602.64"/>
<polygon fill="darkblue" stroke="darkblue" points="865.68,-599.32 855.09,-599.18 863.28,-605.9 865.68,-599.32"/>
<text text-anchor="middle" x="1020.74" y="-991.5" font-family="Times,serif" font-size="10.00">failed|default</text>
</g>
<!-- qa__guard_setup -->
<g id="node58" class="node">
<title>qa__guard_setup</title>
<path fill="lightsalmon" stroke="black" d="M1013.95,-843.8C1013.95,-843.8 941.02,-830.2 941.02,-830.2 935.12,-829.1 935.12,-826.9 941.02,-825.8 941.02,-825.8 1013.95,-812.2 1013.95,-812.2 1019.84,-811.1 1031.64,-811.1 1037.54,-812.2 1037.54,-812.2 1110.47,-825.8 1110.47,-825.8 1116.37,-826.9 1116.37,-829.1 1110.47,-830.2 1110.47,-830.2 1037.54,-843.8 1037.54,-843.8 1031.64,-844.9 1019.84,-844.9 1013.95,-843.8"/>
<text text-anchor="middle" x="1025.74" y="-824.3" font-family="Times,serif" font-size="14.00">guard_setup</text>
</g>
<!-- qa__decide_qa&#45;&gt;qa__guard_setup -->
<g id="edge48" class="edge">
<title>qa__decide_qa&#45;&gt;qa__guard_setup</title>
<path fill="none" stroke="darkblue" d="M986.25,-1387.01C991.57,-1380.74 997.23,-1372.97 1000.74,-1365 1071.23,-1204.89 1081.14,-1149.74 1060.74,-976 1055.67,-932.84 1042.51,-883.98 1033.85,-854.87"/>
<polygon fill="darkblue" stroke="darkblue" points="1037.13,-853.65 1030.89,-845.09 1030.43,-855.68 1037.13,-853.65"/>
<text text-anchor="middle" x="1089.74" y="-1116" font-family="Times,serif" font-size="10.00">blocked</text>
</g>
<!-- qa__decide_qa_feedback -->
<g id="node44" class="node">
<title>qa__decide_qa_feedback</title>
<path fill="lightsalmon" stroke="black" d="M819.83,-1260.53C819.83,-1260.53 698.2,-1245.47 698.2,-1245.47 692.24,-1244.74 692.24,-1243.26 698.2,-1242.53 698.2,-1242.53 819.83,-1227.47 819.83,-1227.47 825.79,-1226.74 837.7,-1226.74 843.65,-1227.47 843.65,-1227.47 965.29,-1242.53 965.29,-1242.53 971.24,-1243.26 971.24,-1244.74 965.29,-1245.47 965.29,-1245.47 843.65,-1260.53 843.65,-1260.53 837.7,-1261.26 825.79,-1261.26 819.83,-1260.53"/>
<text text-anchor="middle" x="831.74" y="-1240.3" font-family="Times,serif" font-size="14.00">decide_qa_feedback</text>
</g>
<!-- qa__check_qa_feedback&#45;&gt;qa__decide_qa_feedback -->
<g id="edge49" class="edge">
<title>qa__check_qa_feedback&#45;&gt;qa__decide_qa_feedback</title>
<path fill="none" stroke="darkblue" d="M870.66,-1299.94C864.19,-1290.8 856.1,-1279.39 848.99,-1269.34"/>
<polygon fill="darkblue" stroke="darkblue" points="851.68,-1267.09 843.04,-1260.95 845.97,-1271.14 851.68,-1267.09"/>
</g>
<!-- qa__apply_qa_feedback -->
<g id="node45" class="node">
<title>qa__apply_qa_feedback</title>
<path fill="lightblue" stroke="black" d="M802.74,-1178C802.74,-1178 676.74,-1178 676.74,-1178 670.74,-1178 664.74,-1172 664.74,-1166 664.74,-1166 664.74,-1154 664.74,-1154 664.74,-1148 670.74,-1142 676.74,-1142 676.74,-1142 802.74,-1142 802.74,-1142 808.74,-1142 814.74,-1148 814.74,-1154 814.74,-1154 814.74,-1166 814.74,-1166 814.74,-1172 808.74,-1178 802.74,-1178"/>
<text text-anchor="middle" x="739.74" y="-1156.3" font-family="Times,serif" font-size="14.00">apply_qa_feedback</text>
</g>
<!-- qa__decide_qa_feedback&#45;&gt;qa__apply_qa_feedback -->
<g id="edge50" class="edge">
<title>qa__decide_qa_feedback&#45;&gt;qa__apply_qa_feedback</title>
<path fill="none" stroke="darkblue" d="M814.87,-1227.96C801.44,-1215.99 782.38,-1199.01 766.83,-1185.14"/>
<polygon fill="darkblue" stroke="darkblue" points="768.85,-1182.26 759.06,-1178.21 764.19,-1187.48 768.85,-1182.26"/>
<text text-anchor="middle" x="799.74" y="-1199" font-family="Times,serif" font-size="10.00">yes</text>
</g>
<!-- qa__detect_regression -->
<g id="node46" class="node">
<title>qa__detect_regression</title>
<path fill="lightblue" stroke="black" d="M964.74,-1178C964.74,-1178 844.74,-1178 844.74,-1178 838.74,-1178 832.74,-1172 832.74,-1166 832.74,-1166 832.74,-1154 832.74,-1154 832.74,-1148 838.74,-1142 844.74,-1142 844.74,-1142 964.74,-1142 964.74,-1142 970.74,-1142 976.74,-1148 976.74,-1154 976.74,-1154 976.74,-1166 976.74,-1166 976.74,-1172 970.74,-1178 964.74,-1178"/>
<text text-anchor="middle" x="904.74" y="-1156.3" font-family="Times,serif" font-size="14.00">detect_regression</text>
</g>
<!-- qa__decide_qa_feedback&#45;&gt;qa__detect_regression -->
<g id="edge51" class="edge">
<title>qa__decide_qa_feedback&#45;&gt;qa__detect_regression</title>
<path fill="none" stroke="darkblue" d="M845.47,-1227.58C855.97,-1215.79 870.65,-1199.3 882.77,-1185.68"/>
<polygon fill="darkblue" stroke="darkblue" points="885.53,-1187.85 889.56,-1178.05 880.3,-1183.19 885.53,-1187.85"/>
<text text-anchor="middle" x="897.74" y="-1199" font-family="Times,serif" font-size="10.00">no|default</text>
</g>
<!-- qa__apply_qa_feedback&#45;&gt;qa__qa -->
<g id="edge52" class="edge">
<title>qa__apply_qa_feedback&#45;&gt;qa__qa</title>
<path fill="none" stroke="darkblue" d="M711.29,-1178.09C691.16,-1192.56 667.74,-1215.34 667.74,-1243 667.74,-1764 667.74,-1764 667.74,-1764 667.74,-1830.68 902.57,-1843.15 995.51,-1845.47"/>
<polygon fill="darkblue" stroke="darkblue" points="995.53,-1848.97 1005.61,-1845.7 995.69,-1841.97 995.53,-1848.97"/>
</g>
<!-- qa__gate_regression -->
<g id="node47" class="node">
<title>qa__gate_regression</title>
<path fill="lightsalmon" stroke="black" d="M823.87,-1093.22C823.87,-1093.22 727.29,-1078.78 727.29,-1078.78 721.36,-1077.89 721.36,-1076.11 727.29,-1075.22 727.29,-1075.22 823.87,-1060.78 823.87,-1060.78 829.81,-1059.89 841.68,-1059.89 847.61,-1060.78 847.61,-1060.78 944.19,-1075.22 944.19,-1075.22 950.13,-1076.11 950.13,-1077.89 944.19,-1078.78 944.19,-1078.78 847.61,-1093.22 847.61,-1093.22 841.68,-1094.11 829.81,-1094.11 823.87,-1093.22"/>
<text text-anchor="middle" x="835.74" y="-1073.3" font-family="Times,serif" font-size="14.00">gate_regression</text>
</g>
<!-- qa__detect_regression&#45;&gt;qa__gate_regression -->
<g id="edge53" class="edge">
<title>qa__detect_regression&#45;&gt;qa__gate_regression</title>
<path fill="none" stroke="darkblue" d="M890.11,-1141.82C879.95,-1129.9 866.31,-1113.89 855.24,-1100.89"/>
<polygon fill="darkblue" stroke="darkblue" points="857.87,-1098.58 848.73,-1093.24 852.55,-1103.12 857.87,-1098.58"/>
</g>
<!-- qa__regression_gate -->
<g id="node48" class="node">
<title>qa__regression_gate</title>
<path fill="lightblue" stroke="black" d="M889.24,-1012C889.24,-1012 782.24,-1012 782.24,-1012 776.24,-1012 770.24,-1006 770.24,-1000 770.24,-1000 770.24,-988 770.24,-988 770.24,-982 776.24,-976 782.24,-976 782.24,-976 889.24,-976 889.24,-976 895.24,-976 901.24,-982 901.24,-988 901.24,-988 901.24,-1000 901.24,-1000 901.24,-1006 895.24,-1012 889.24,-1012"/>
<text text-anchor="middle" x="835.74" y="-990.3" font-family="Times,serif" font-size="14.00">regression_gate</text>
</g>
<!-- qa__gate_regression&#45;&gt;qa__regression_gate -->
<g id="edge54" class="edge">
<title>qa__gate_regression&#45;&gt;qa__regression_gate</title>
<path fill="none" stroke="darkblue" d="M835.74,-1058.82C835.74,-1048.19 835.74,-1034.31 835.74,-1022.2"/>
<polygon fill="darkblue" stroke="darkblue" points="839.24,-1022.15 835.74,-1012.15 832.24,-1022.15 839.24,-1022.15"/>
<text text-anchor="middle" x="878.24" y="-1033" font-family="Times,serif" font-size="10.00">web|mobile|both</text>
</g>
<!-- qa__flush_root_screenshots -->
<g id="node50" class="node">
<title>qa__flush_root_screenshots</title>
<path fill="lightblue" stroke="black" d="M832.24,-846C832.24,-846 677.24,-846 677.24,-846 671.24,-846 665.24,-840 665.24,-834 665.24,-834 665.24,-822 665.24,-822 665.24,-816 671.24,-810 677.24,-810 677.24,-810 832.24,-810 832.24,-810 838.24,-810 844.24,-816 844.24,-822 844.24,-822 844.24,-834 844.24,-834 844.24,-840 838.24,-846 832.24,-846"/>
<text text-anchor="middle" x="754.74" y="-824.3" font-family="Times,serif" font-size="14.00">flush_root_screenshots</text>
</g>
<!-- qa__gate_regression&#45;&gt;qa__flush_root_screenshots -->
<g id="edge55" class="edge">
<title>qa__gate_regression&#45;&gt;qa__flush_root_screenshots</title>
<path fill="none" stroke="darkblue" d="M813.45,-1062.28C779.14,-1039.6 715.01,-990.61 692.74,-929 687.3,-913.95 686.74,-907.83 692.74,-893 699.03,-877.47 711.09,-863.63 722.92,-852.83"/>
<polygon fill="darkblue" stroke="darkblue" points="725.32,-855.37 730.59,-846.18 720.74,-850.08 725.32,-855.37"/>
<text text-anchor="middle" x="738.24" y="-950" font-family="Times,serif" font-size="10.00">none|default</text>
</g>
<!-- qa__decide_regression -->
<g id="node49" class="node">
<title>qa__decide_regression</title>
<path fill="lightsalmon" stroke="black" d="M823.85,-927.41C823.85,-927.41 713.24,-912.59 713.24,-912.59 707.29,-911.8 707.29,-910.2 713.24,-909.41 713.24,-909.41 823.85,-894.59 823.85,-894.59 829.79,-893.8 841.69,-893.8 847.64,-894.59 847.64,-894.59 958.24,-909.41 958.24,-909.41 964.19,-910.2 964.19,-911.8 958.24,-912.59 958.24,-912.59 847.64,-927.41 847.64,-927.41 841.69,-928.2 829.79,-928.2 823.85,-927.41"/>
<text text-anchor="middle" x="835.74" y="-907.3" font-family="Times,serif" font-size="14.00">decide_regression</text>
</g>
<!-- qa__regression_gate&#45;&gt;qa__decide_regression -->
<g id="edge56" class="edge">
<title>qa__regression_gate&#45;&gt;qa__decide_regression</title>
<path fill="none" stroke="darkblue" d="M835.74,-975.82C835.74,-965.19 835.74,-951.31 835.74,-939.2"/>
<polygon fill="darkblue" stroke="darkblue" points="839.24,-939.15 835.74,-929.15 832.24,-939.15 839.24,-939.15"/>
</g>
<!-- qa__decide_regression&#45;&gt;qa__flush_root_screenshots -->
<g id="edge57" class="edge">
<title>qa__decide_regression&#45;&gt;qa__flush_root_screenshots</title>
<path fill="none" stroke="darkblue" d="M820.51,-894.76C808.83,-883.09 792.49,-866.74 779.01,-853.27"/>
<polygon fill="darkblue" stroke="darkblue" points="781.42,-850.73 771.87,-846.13 776.47,-855.68 781.42,-850.73"/>
<text text-anchor="middle" x="818.24" y="-867" font-family="Times,serif" font-size="10.00">passed</text>
</g>
<!-- qa__decide_regression&#45;&gt;qa__guard_qa -->
<g id="edge58" class="edge">
<title>qa__decide_regression&#45;&gt;qa__guard_qa</title>
<path fill="none" stroke="darkblue" d="M840.75,-893.51C844.57,-880.64 849.82,-862.27 853.74,-846 866.39,-793.55 850.76,-773.72 877.74,-727 890.18,-705.46 909.5,-712.67 919.74,-690 926.33,-675.42 927.1,-668.21 919.74,-654 907.62,-630.58 882.6,-614.45 860.87,-604.25"/>
<polygon fill="darkblue" stroke="darkblue" points="862.06,-600.95 851.5,-600.1 859.23,-607.35 862.06,-600.95"/>
<text text-anchor="middle" x="911.74" y="-742.5" font-family="Times,serif" font-size="10.00">failed|default</text>
</g>
<!-- qa__decide_regression&#45;&gt;qa__guard_setup -->
<g id="edge59" class="edge">
<title>qa__decide_regression&#45;&gt;qa__guard_setup</title>
<path fill="none" stroke="darkblue" d="M866.27,-896.99C899.44,-882.84 952.48,-860.23 988.19,-845.01"/>
<polygon fill="darkblue" stroke="darkblue" points="989.94,-848.07 997.77,-840.93 987.2,-841.63 989.94,-848.07"/>
<text text-anchor="middle" x="961.74" y="-867" font-family="Times,serif" font-size="10.00">blocked</text>
</g>
<!-- qa__check_sentinels -->
<g id="node51" class="node">
<title>qa__check_sentinels</title>
<path fill="lightblue" stroke="black" d="M813.74,-763C813.74,-763 709.74,-763 709.74,-763 703.74,-763 697.74,-757 697.74,-751 697.74,-751 697.74,-739 697.74,-739 697.74,-733 703.74,-727 709.74,-727 709.74,-727 813.74,-727 813.74,-727 819.74,-727 825.74,-733 825.74,-739 825.74,-739 825.74,-751 825.74,-751 825.74,-757 819.74,-763 813.74,-763"/>
<text text-anchor="middle" x="761.74" y="-741.3" font-family="Times,serif" font-size="14.00">check_sentinels</text>
</g>
<!-- qa__flush_root_screenshots&#45;&gt;qa__check_sentinels -->
<g id="edge60" class="edge">
<title>qa__flush_root_screenshots&#45;&gt;qa__check_sentinels</title>
<path fill="none" stroke="darkblue" d="M756.23,-809.82C757.15,-799.19 758.34,-785.31 759.39,-773.2"/>
<polygon fill="darkblue" stroke="darkblue" points="762.89,-773.42 760.26,-763.15 755.91,-772.81 762.89,-773.42"/>
</g>
<!-- qa__decide_sentinels -->
<g id="node52" class="node">
<title>qa__decide_sentinels</title>
<path fill="lightsalmon" stroke="black" d="M775.87,-688.27C775.87,-688.27 676.28,-673.73 676.28,-673.73 670.34,-672.87 670.34,-671.13 676.28,-670.27 676.28,-670.27 775.87,-655.73 775.87,-655.73 781.8,-654.87 793.68,-654.87 799.62,-655.73 799.62,-655.73 899.2,-670.27 899.2,-670.27 905.14,-671.13 905.14,-672.87 899.2,-673.73 899.2,-673.73 799.62,-688.27 799.62,-688.27 793.68,-689.13 781.8,-689.13 775.87,-688.27"/>
<text text-anchor="middle" x="787.74" y="-668.3" font-family="Times,serif" font-size="14.00">decide_sentinels</text>
</g>
<!-- qa__check_sentinels&#45;&gt;qa__decide_sentinels -->
<g id="edge61" class="edge">
<title>qa__check_sentinels&#45;&gt;qa__decide_sentinels</title>
<path fill="none" stroke="darkblue" d="M768.04,-726.81C771.08,-718.49 774.8,-708.33 778.19,-699.08"/>
<polygon fill="darkblue" stroke="darkblue" points="781.53,-700.13 781.68,-689.54 774.96,-697.73 781.53,-700.13"/>
</g>
<!-- qa__mark_qa_passed -->
<g id="node53" class="node">
<title>qa__mark_qa_passed</title>
<path fill="lightblue" stroke="black" d="M786.74,-553C786.74,-553 676.74,-553 676.74,-553 670.74,-553 664.74,-547 664.74,-541 664.74,-541 664.74,-529 664.74,-529 664.74,-523 670.74,-517 676.74,-517 676.74,-517 786.74,-517 786.74,-517 792.74,-517 798.74,-523 798.74,-529 798.74,-529 798.74,-541 798.74,-541 798.74,-547 792.74,-553 786.74,-553"/>
<text text-anchor="middle" x="731.74" y="-531.3" font-family="Times,serif" font-size="14.00">mark_qa_passed</text>
</g>
<!-- qa__decide_sentinels&#45;&gt;qa__mark_qa_passed -->
<g id="edge62" class="edge">
<title>qa__decide_sentinels&#45;&gt;qa__mark_qa_passed</title>
<path fill="none" stroke="darkblue" d="M771.26,-655.91C759.38,-643.93 744.17,-626.06 736.74,-607 731.4,-593.28 729.94,-576.95 729.92,-563.42"/>
<polygon fill="darkblue" stroke="darkblue" points="733.42,-563.34 730.16,-553.26 726.42,-563.18 733.42,-563.34"/>
<text text-anchor="middle" x="771.24" y="-628" font-family="Times,serif" font-size="10.00">passed</text>
</g>
<!-- qa__decide_sentinels&#45;&gt;qa__guard_qa -->
<g id="edge63" class="edge">
<title>qa__decide_sentinels&#45;&gt;qa__guard_qa</title>
<path fill="none" stroke="darkblue" d="M794.62,-654.61C799.42,-643.19 805.9,-627.75 811.32,-614.83"/>
<polygon fill="darkblue" stroke="darkblue" points="814.57,-616.12 815.22,-605.54 808.12,-613.41 814.57,-616.12"/>
<text text-anchor="middle" x="840.74" y="-628" font-family="Times,serif" font-size="10.00">failed|default</text>
</g>
<!-- qa__qa_done -->
<g id="node68" class="node">
<title>qa__qa_done</title>
<path fill="lightgreen" stroke="black" d="M761.74,-54C761.74,-54 697.74,-54 697.74,-54 691.74,-54 685.74,-48 685.74,-42 685.74,-42 685.74,-28 685.74,-28 685.74,-22 691.74,-16 697.74,-16 697.74,-16 761.74,-16 761.74,-16 767.74,-16 773.74,-22 773.74,-28 773.74,-28 773.74,-42 773.74,-42 773.74,-48 767.74,-54 761.74,-54"/>
<text text-anchor="middle" x="729.74" y="-38.8" font-family="Times,serif" font-size="14.00">qa_done</text>
<text text-anchor="middle" x="729.74" y="-23.8" font-family="Times,serif" font-size="14.00">(terminal)</text>
</g>
<!-- qa__mark_qa_passed&#45;&gt;qa__qa_done -->
<g id="edge64" class="edge">
<title>qa__mark_qa_passed&#45;&gt;qa__qa_done</title>
<path fill="none" stroke="darkblue" d="M723.17,-516.85C713.69,-496.28 699.74,-460.49 699.74,-428 699.74,-428 699.74,-428 699.74,-108 699.74,-92.31 705.89,-76.07 712.62,-63"/>
<polygon fill="darkblue" stroke="darkblue" points="715.77,-64.53 717.54,-54.09 709.64,-61.15 715.77,-64.53"/>
</g>
<!-- qa__mark_qa_exhausted -->
<g id="node55" class="node">
<title>qa__mark_qa_exhausted</title>
<path fill="lightblue" stroke="black" d="M851.74,-445C851.74,-445 717.74,-445 717.74,-445 711.74,-445 705.74,-439 705.74,-433 705.74,-433 705.74,-421 705.74,-421 705.74,-415 711.74,-409 717.74,-409 717.74,-409 851.74,-409 851.74,-409 857.74,-409 863.74,-415 863.74,-421 863.74,-421 863.74,-433 863.74,-433 863.74,-439 857.74,-445 851.74,-445"/>
<text text-anchor="middle" x="784.74" y="-423.3" font-family="Times,serif" font-size="14.00">mark_qa_exhausted</text>
</g>
<!-- qa__guard_qa&#45;&gt;qa__mark_qa_exhausted -->
<g id="edge65" class="edge">
<title>qa__guard_qa&#45;&gt;qa__mark_qa_exhausted</title>
<path fill="none" stroke="darkblue" d="M817.99,-571.78C811.66,-544.39 798.78,-488.71 791.04,-455.25"/>
<polygon fill="darkblue" stroke="darkblue" points="794.39,-454.19 788.73,-445.23 787.57,-455.76 794.39,-454.19"/>
<text text-anchor="middle" x="825.74" y="-532.5" font-family="Times,serif" font-size="10.00">&gt;= 3</text>
</g>
<!-- qa__apply_qa_fixes -->
<g id="node56" class="node">
<title>qa__apply_qa_fixes</title>
<path fill="lightblue" stroke="black" d="M880.24,-337C880.24,-337 785.24,-337 785.24,-337 779.24,-337 773.24,-331 773.24,-325 773.24,-325 773.24,-313 773.24,-313 773.24,-307 779.24,-301 785.24,-301 785.24,-301 880.24,-301 880.24,-301 886.24,-301 892.24,-307 892.24,-313 892.24,-313 892.24,-325 892.24,-325 892.24,-331 886.24,-337 880.24,-337"/>
<text text-anchor="middle" x="832.74" y="-315.3" font-family="Times,serif" font-size="14.00">apply_qa_fixes</text>
</g>
<!-- qa__guard_qa&#45;&gt;qa__apply_qa_fixes -->
<g id="edge66" class="edge">
<title>qa__guard_qa&#45;&gt;qa__apply_qa_fixes</title>
<path fill="none" stroke="darkblue" d="M832.12,-573.24C835.95,-567.21 840.02,-560 842.74,-553 866.2,-492.65 875.86,-472.78 864.74,-409 860.97,-387.36 852.41,-364.04 845.08,-346.7"/>
<polygon fill="darkblue" stroke="darkblue" points="848.17,-345.01 840.96,-337.24 841.75,-347.81 848.17,-345.01"/>
<text text-anchor="middle" x="887.24" y="-478.5" font-family="Times,serif" font-size="10.00">default</text>
</g>
<!-- qa__mark_qa_exhausted&#45;&gt;qa__qa_done -->
<g id="edge67" class="edge">
<title>qa__mark_qa_exhausted&#45;&gt;qa__qa_done</title>
<path fill="none" stroke="darkblue" d="M769.13,-408.67C752.87,-388.77 729.74,-354.42 729.74,-320 729.74,-320 729.74,-320 729.74,-108 729.74,-93.64 729.74,-77.68 729.74,-64.44"/>
<polygon fill="darkblue" stroke="darkblue" points="733.24,-64.05 729.74,-54.05 726.24,-64.05 733.24,-64.05"/>
</g>
<!-- qa__incr_qa -->
<g id="node57" class="node">
<title>qa__incr_qa</title>
<path fill="lightblue" stroke="black" d="M1012.74,-53C1012.74,-53 968.74,-53 968.74,-53 962.74,-53 956.74,-47 956.74,-41 956.74,-41 956.74,-29 956.74,-29 956.74,-23 962.74,-17 968.74,-17 968.74,-17 1012.74,-17 1012.74,-17 1018.74,-17 1024.74,-23 1024.74,-29 1024.74,-29 1024.74,-41 1024.74,-41 1024.74,-47 1018.74,-53 1012.74,-53"/>
<text text-anchor="middle" x="990.74" y="-31.3" font-family="Times,serif" font-size="14.00">incr_qa</text>
</g>
<!-- qa__apply_qa_fixes&#45;&gt;qa__incr_qa -->
<g id="edge68" class="edge">
<title>qa__apply_qa_fixes&#45;&gt;qa__incr_qa</title>
<path fill="none" stroke="darkblue" d="M801.36,-300.85C777.86,-285.47 749.74,-260.48 749.74,-229 749.74,-229 749.74,-229 749.74,-108 749.74,-67.4 876.9,-47.79 946.49,-40.1"/>
<polygon fill="darkblue" stroke="darkblue" points="947.15,-43.55 956.72,-39.01 946.41,-36.59 947.15,-43.55"/>
</g>
<!-- qa__incr_qa&#45;&gt;qa__qa -->
<g id="edge69" class="edge">
<title>qa__incr_qa&#45;&gt;qa__qa</title>
<path fill="none" stroke="darkblue" d="M1024.94,-35.86C1074.84,-37.65 1161.74,-49.21 1161.74,-108 1161.74,-1764 1161.74,-1764 1161.74,-1764 1161.74,-1807.97 1107.7,-1829.37 1069.57,-1839"/>
<polygon fill="darkblue" stroke="darkblue" points="1068.72,-1835.61 1059.78,-1841.31 1070.32,-1842.42 1068.72,-1835.61"/>
</g>
<!-- qa__setup_fix -->
<g id="node59" class="node">
<title>qa__setup_fix</title>
<path fill="lightblue" stroke="black" d="M1046.74,-763C1046.74,-763 990.74,-763 990.74,-763 984.74,-763 978.74,-757 978.74,-751 978.74,-751 978.74,-739 978.74,-739 978.74,-733 984.74,-727 990.74,-727 990.74,-727 1046.74,-727 1046.74,-727 1052.74,-727 1058.74,-733 1058.74,-739 1058.74,-739 1058.74,-751 1058.74,-751 1058.74,-757 1052.74,-763 1046.74,-763"/>
<text text-anchor="middle" x="1018.74" y="-741.3" font-family="Times,serif" font-size="14.00">setup_fix</text>
</g>
<!-- qa__guard_setup&#45;&gt;qa__setup_fix -->
<g id="edge71" class="edge">
<title>qa__guard_setup&#45;&gt;qa__setup_fix</title>
<path fill="none" stroke="darkblue" d="M1024.29,-810.22C1023.37,-799.54 1022.15,-785.46 1021.09,-773.21"/>
<polygon fill="darkblue" stroke="darkblue" points="1024.56,-772.7 1020.21,-763.04 1017.59,-773.3 1024.56,-772.7"/>
<text text-anchor="middle" x="1040.24" y="-784" font-family="Times,serif" font-size="10.00">default</text>
</g>
<!-- qa__gate_qa -->
<g id="node62" class="node">
<title>qa__gate_qa</title>
<path fill="lightsalmon" stroke="black" d="M1010.16,-495.86C1010.16,-495.86 966.96,-484.14 966.96,-484.14 961.17,-482.57 961.17,-479.43 966.96,-477.86 966.96,-477.86 1010.16,-466.14 1010.16,-466.14 1015.95,-464.57 1027.53,-464.57 1033.32,-466.14 1033.32,-466.14 1076.52,-477.86 1076.52,-477.86 1082.31,-479.43 1082.31,-482.57 1076.52,-484.14 1076.52,-484.14 1033.32,-495.86 1033.32,-495.86 1027.53,-497.43 1015.95,-497.43 1010.16,-495.86"/>
<text text-anchor="middle" x="1021.74" y="-477.3" font-family="Times,serif" font-size="14.00">gate_qa</text>
</g>
<!-- qa__guard_setup&#45;&gt;qa__gate_qa -->
<g id="edge70" class="edge">
<title>qa__guard_setup&#45;&gt;qa__gate_qa</title>
<path fill="none" stroke="darkblue" d="M1043.73,-813.14C1050.44,-807.23 1057.66,-799.88 1062.74,-792 1090.47,-749.04 1146.31,-618.24 1126.74,-571 1112.98,-537.77 1079.1,-512.85 1053.52,-497.95"/>
<polygon fill="darkblue" stroke="darkblue" points="1054.96,-494.75 1044.53,-492.92 1051.54,-500.86 1054.96,-494.75"/>
<text text-anchor="middle" x="1133.74" y="-669.5" font-family="Times,serif" font-size="10.00">&gt;= 2</text>
</g>
<!-- qa__incr_setup -->
<g id="node60" class="node">
<title>qa__incr_setup</title>
<path fill="lightblue" stroke="black" d="M1048.24,-690C1048.24,-690 981.24,-690 981.24,-690 975.24,-690 969.24,-684 969.24,-678 969.24,-678 969.24,-666 969.24,-666 969.24,-660 975.24,-654 981.24,-654 981.24,-654 1048.24,-654 1048.24,-654 1054.24,-654 1060.24,-660 1060.24,-666 1060.24,-666 1060.24,-678 1060.24,-678 1060.24,-684 1054.24,-690 1048.24,-690"/>
<text text-anchor="middle" x="1014.74" y="-668.3" font-family="Times,serif" font-size="14.00">incr_setup</text>
</g>
<!-- qa__setup_fix&#45;&gt;qa__incr_setup -->
<g id="edge72" class="edge">
<title>qa__setup_fix&#45;&gt;qa__incr_setup</title>
<path fill="none" stroke="darkblue" d="M1017.77,-726.81C1017.32,-718.79 1016.77,-709.05 1016.27,-700.07"/>
<polygon fill="darkblue" stroke="darkblue" points="1019.76,-699.82 1015.7,-690.03 1012.77,-700.21 1019.76,-699.82"/>
</g>
<!-- qa__decide_setup -->
<g id="node61" class="node">
<title>qa__decide_setup</title>
<path fill="lightsalmon" stroke="black" d="M1004.93,-604.9C1004.93,-604.9 927.34,-591.1 927.34,-591.1 921.43,-590.05 921.43,-587.95 927.34,-586.9 927.34,-586.9 1004.93,-573.1 1004.93,-573.1 1010.83,-572.05 1022.65,-572.05 1028.56,-573.1 1028.56,-573.1 1106.14,-586.9 1106.14,-586.9 1112.05,-587.95 1112.05,-590.05 1106.14,-591.1 1106.14,-591.1 1028.56,-604.9 1028.56,-604.9 1022.65,-605.95 1010.83,-605.95 1004.93,-604.9"/>
<text text-anchor="middle" x="1016.74" y="-585.3" font-family="Times,serif" font-size="14.00">decide_setup</text>
</g>
<!-- qa__incr_setup&#45;&gt;qa__decide_setup -->
<g id="edge73" class="edge">
<title>qa__incr_setup&#45;&gt;qa__decide_setup</title>
<path fill="none" stroke="darkblue" d="M1015.17,-653.82C1015.43,-643.19 1015.77,-629.31 1016.07,-617.2"/>
<polygon fill="darkblue" stroke="darkblue" points="1019.57,-617.24 1016.32,-607.15 1012.57,-617.06 1019.57,-617.24"/>
</g>
<!-- qa__decide_setup&#45;&gt;qa__qa -->
<g id="edge74" class="edge">
<title>qa__decide_setup&#45;&gt;qa__qa</title>
<path fill="none" stroke="darkblue" d="M1060.46,-599.36C1096.51,-609.95 1141.74,-631.18 1141.74,-671 1141.74,-829 1141.74,-829 1141.74,-829 1141.74,-960.7 1142.56,-995.49 1113.74,-1124 1106.3,-1157.2 1093.96,-1162.55 1087.74,-1196 1083.92,-1216.54 1086.74,-1222.11 1086.74,-1243 1086.74,-1764 1086.74,-1764 1086.74,-1764 1086.74,-1785.92 1073.12,-1806.51 1059.56,-1821.57"/>
<polygon fill="darkblue" stroke="darkblue" points="1056.91,-1819.27 1052.54,-1828.92 1061.98,-1824.1 1056.91,-1819.27"/>
<text text-anchor="middle" x="1122.24" y="-1199" font-family="Times,serif" font-size="10.00">ready|default</text>
</g>
<!-- qa__decide_setup&#45;&gt;qa__gate_qa -->
<g id="edge75" class="edge">
<title>qa__decide_setup&#45;&gt;qa__gate_qa</title>
<path fill="none" stroke="darkblue" d="M1017.55,-570.97C1018.33,-554.28 1019.54,-528.58 1020.46,-509.08"/>
<polygon fill="darkblue" stroke="darkblue" points="1023.97,-509.14 1020.94,-498.99 1016.97,-508.81 1023.97,-509.14"/>
<text text-anchor="middle" x="1044.24" y="-532.5" font-family="Times,serif" font-size="10.00">unfixable</text>
</g>
<!-- qa__resolve_qa -->
<g id="node63" class="node">
<title>qa__resolve_qa</title>
<path fill="lightblue" stroke="black" d="M1085.74,-391C1085.74,-391 1017.74,-391 1017.74,-391 1011.74,-391 1005.74,-385 1005.74,-379 1005.74,-379 1005.74,-367 1005.74,-367 1005.74,-361 1011.74,-355 1017.74,-355 1017.74,-355 1085.74,-355 1085.74,-355 1091.74,-355 1097.74,-361 1097.74,-367 1097.74,-367 1097.74,-379 1097.74,-379 1097.74,-385 1091.74,-391 1085.74,-391"/>
<text text-anchor="middle" x="1051.74" y="-369.3" font-family="Times,serif" font-size="14.00">resolve_qa</text>
</g>
<!-- qa__gate_qa&#45;&gt;qa__resolve_qa -->
<g id="edge77" class="edge">
<title>qa__gate_qa&#45;&gt;qa__resolve_qa</title>
<path fill="none" stroke="darkblue" d="M1026.3,-463.9C1031.02,-447.23 1038.47,-420.89 1044.09,-401.02"/>
<polygon fill="darkblue" stroke="darkblue" points="1047.49,-401.88 1046.84,-391.31 1040.75,-399.98 1047.49,-401.88"/>
<text text-anchor="middle" x="1071.74" y="-424.5" font-family="Times,serif" font-size="10.00">auto|default</text>
</g>
<!-- qa__await_operator_qa -->
<g id="node64" class="node">
<title>qa__await_operator_qa</title>
<path fill="lightblue" stroke="black" d="M1017.74,-283C1017.74,-283 893.74,-283 893.74,-283 887.74,-283 881.74,-277 881.74,-271 881.74,-271 881.74,-259 881.74,-259 881.74,-253 887.74,-247 893.74,-247 893.74,-247 1017.74,-247 1017.74,-247 1023.74,-247 1029.74,-253 1029.74,-259 1029.74,-259 1029.74,-271 1029.74,-271 1029.74,-277 1023.74,-283 1017.74,-283"/>
<text text-anchor="middle" x="955.74" y="-261.3" font-family="Times,serif" font-size="14.00">await_operator_qa</text>
</g>
<!-- qa__gate_qa&#45;&gt;qa__await_operator_qa -->
<g id="edge76" class="edge">
<title>qa__gate_qa&#45;&gt;qa__await_operator_qa</title>
<path fill="none" stroke="darkblue" d="M1008.33,-466.33C993.29,-449.97 969.7,-421.03 959.74,-391 949.04,-358.72 949.93,-319.15 952.24,-293.29"/>
<polygon fill="darkblue" stroke="darkblue" points="955.75,-293.42 953.29,-283.11 948.79,-292.7 955.75,-293.42"/>
<text text-anchor="middle" x="978.24" y="-370.5" font-family="Times,serif" font-size="10.00">human</text>
</g>
<!-- qa__resolve_qa&#45;&gt;qa__await_operator_qa -->
<g id="edge78" class="edge">
<title>qa__resolve_qa&#45;&gt;qa__await_operator_qa</title>
<path fill="none" stroke="darkblue" d="M1036.32,-354.97C1020.6,-337.61 996.05,-310.5 978.17,-290.77"/>
<polygon fill="darkblue" stroke="darkblue" points="980.75,-288.4 971.45,-283.34 975.57,-293.1 980.75,-288.4"/>
</g>
<!-- qa__decide_operator_scope_qa -->
<g id="node65" class="node">
<title>qa__decide_operator_scope_qa</title>
<path fill="lightsalmon" stroke="black" d="M943.8,-208.85C943.8,-208.85 781.01,-193.15 781.01,-193.15 775.04,-192.58 775.04,-191.42 781.01,-190.85 781.01,-190.85 943.8,-175.15 943.8,-175.15 949.77,-174.58 961.71,-174.58 967.69,-175.15 967.69,-175.15 1130.48,-190.85 1130.48,-190.85 1136.45,-191.42 1136.45,-192.58 1130.48,-193.15 1130.48,-193.15 967.69,-208.85 967.69,-208.85 961.71,-209.42 949.77,-209.42 943.8,-208.85"/>
<text text-anchor="middle" x="955.74" y="-188.3" font-family="Times,serif" font-size="14.00">decide_operator_scope_qa</text>
</g>
<!-- qa__await_operator_qa&#45;&gt;qa__decide_operator_scope_qa -->
<g id="edge79" class="edge">
<title>qa__await_operator_qa&#45;&gt;qa__decide_operator_scope_qa</title>
<path fill="none" stroke="darkblue" d="M955.74,-246.81C955.74,-238.79 955.74,-229.05 955.74,-220.07"/>
<polygon fill="darkblue" stroke="darkblue" points="959.24,-220.03 955.74,-210.03 952.24,-220.03 959.24,-220.03"/>
</g>
<!-- qa__mark_qa_replan -->
<g id="node66" class="node">
<title>qa__mark_qa_replan</title>
<path fill="lightblue" stroke="black" d="M886.74,-127C886.74,-127 780.74,-127 780.74,-127 774.74,-127 768.74,-121 768.74,-115 768.74,-115 768.74,-103 768.74,-103 768.74,-97 774.74,-91 780.74,-91 780.74,-91 886.74,-91 886.74,-91 892.74,-91 898.74,-97 898.74,-103 898.74,-103 898.74,-115 898.74,-115 898.74,-121 892.74,-127 886.74,-127"/>
<text text-anchor="middle" x="833.74" y="-105.3" font-family="Times,serif" font-size="14.00">mark_qa_replan</text>
</g>
<!-- qa__decide_operator_scope_qa&#45;&gt;qa__mark_qa_replan -->
<g id="edge80" class="edge">
<title>qa__decide_operator_scope_qa&#45;&gt;qa__mark_qa_replan</title>
<path fill="none" stroke="darkblue" d="M933.37,-176.14C915.07,-163.99 888.89,-146.62 867.96,-132.72"/>
<polygon fill="darkblue" stroke="darkblue" points="869.62,-129.62 859.35,-127 865.75,-135.45 869.62,-129.62"/>
<text text-anchor="middle" x="912.74" y="-148" font-family="Times,serif" font-size="10.00">epic</text>
</g>
<!-- qa__apply_qa_resolved -->
<g id="node67" class="node">
<title>qa__apply_qa_resolved</title>
<path fill="lightblue" stroke="black" d="M1052.24,-127C1052.24,-127 929.24,-127 929.24,-127 923.24,-127 917.24,-121 917.24,-115 917.24,-115 917.24,-103 917.24,-103 917.24,-97 923.24,-91 929.24,-91 929.24,-91 1052.24,-91 1052.24,-91 1058.24,-91 1064.24,-97 1064.24,-103 1064.24,-103 1064.24,-115 1064.24,-115 1064.24,-121 1058.24,-127 1052.24,-127"/>
<text text-anchor="middle" x="990.74" y="-105.3" font-family="Times,serif" font-size="14.00">apply_qa_resolved</text>
</g>
<!-- qa__decide_operator_scope_qa&#45;&gt;qa__apply_qa_resolved -->
<g id="edge81" class="edge">
<title>qa__decide_operator_scope_qa&#45;&gt;qa__apply_qa_resolved</title>
<path fill="none" stroke="darkblue" d="M962.82,-174.61C967.52,-163.74 973.79,-149.23 979.2,-136.71"/>
<polygon fill="darkblue" stroke="darkblue" points="982.55,-137.77 983.31,-127.21 976.13,-135 982.55,-137.77"/>
<text text-anchor="middle" x="1007.24" y="-148" font-family="Times,serif" font-size="10.00">story|default</text>
</g>
<!-- qa__mark_qa_replan&#45;&gt;qa__qa_done -->
<g id="edge82" class="edge">
<title>qa__mark_qa_replan&#45;&gt;qa__qa_done</title>
<path fill="none" stroke="darkblue" d="M809.1,-90.94C795.74,-81.69 779.02,-70.11 764.37,-59.97"/>
<polygon fill="darkblue" stroke="darkblue" points="766.24,-57.01 756.03,-54.2 762.26,-62.77 766.24,-57.01"/>
</g>
<!-- qa__apply_qa_resolved&#45;&gt;qa__incr_qa -->
<g id="edge83" class="edge">
<title>qa__apply_qa_resolved&#45;&gt;qa__incr_qa</title>
<path fill="none" stroke="darkblue" d="M990.74,-90.94C990.74,-82.81 990.74,-72.88 990.74,-63.7"/>
<polygon fill="darkblue" stroke="darkblue" points="994.24,-63.44 990.74,-53.44 987.24,-63.44 994.24,-63.44"/>
</g>
</g>
</svg>
