<?xml version="1.0" encoding="UTF-8" standalone="no"?>
<!DOCTYPE svg PUBLIC "-//W3C//DTD SVG 1.1//EN"
 "http://www.w3.org/Graphics/SVG/1.1/DTD/svg11.dtd">
<!-- Generated by graphviz version 2.43.0 (0)
 -->
<!-- Title: author Pages: 1 -->
<svg width="975pt" height="896pt"
 viewBox="0.00 0.00 975.00 896.09" xmlns="http://www.w3.org/2000/svg" xmlns:xlink="http://www.w3.org/1999/xlink">
<g id="graph0" class="graph" transform="scale(1 1) rotate(0) translate(4 892.09)">
<title>author</title>
<polygon fill="white" stroke="transparent" points="-4,4 -4,-892.09 971,-892.09 971,4 -4,4"/>
<!-- load_config -->
<g id="node1" class="node">
<title>load_config</title>
<path fill="none" stroke="black" d="M894,-888.09C894,-888.09 735,-888.09 735,-888.09 729,-888.09 723,-882.09 723,-876.09 723,-876.09 723,-862.09 723,-862.09 723,-856.09 729,-850.09 735,-850.09 735,-850.09 894,-850.09 894,-850.09 900,-850.09 906,-856.09 906,-862.09 906,-862.09 906,-876.09 906,-876.09 906,-882.09 900,-888.09 894,-888.09"/>
<text text-anchor="middle" x="814.5" y="-872.89" font-family="Helvetica,sans-Serif" font-size="14.00">load_config</text>
<text text-anchor="middle" x="814.5" y="-857.89" font-family="Helvetica,sans-Serif" font-size="14.00">(validate backlog → cfg)</text>
</g>
<!-- decompose_epics -->
<g id="node2" class="node">
<title>decompose_epics</title>
<path fill="none" stroke="black" d="M921,-813.09C921,-813.09 708,-813.09 708,-813.09 702,-813.09 696,-807.09 696,-801.09 696,-801.09 696,-787.09 696,-787.09 696,-781.09 702,-775.09 708,-775.09 708,-775.09 921,-775.09 921,-775.09 927,-775.09 933,-781.09 933,-787.09 933,-787.09 933,-801.09 933,-801.09 933,-807.09 927,-813.09 921,-813.09"/>
<text text-anchor="middle" x="814.5" y="-797.89" font-family="Helvetica,sans-Serif" font-size="14.00">decompose_epics (opus)</text>
<text text-anchor="middle" x="814.5" y="-782.89" font-family="Helvetica,sans-Serif" font-size="14.00">backlog → coding&#45;ordered epics</text>
</g>
<!-- load_config&#45;&gt;decompose_epics -->
<g id="edge1" class="edge">
<title>load_config&#45;&gt;decompose_epics</title>
<path fill="none" stroke="black" d="M814.5,-850.04C814.5,-841.97 814.5,-832.26 814.5,-823.27"/>
<polygon fill="black" stroke="black" points="818,-823.18 814.5,-813.18 811,-823.18 818,-823.18"/>
</g>
<!-- review_epics -->
<g id="node3" class="node">
<title>review_epics</title>
<path fill="none" stroke="black" d="M807,-738.09C807,-738.09 678,-738.09 678,-738.09 672,-738.09 666,-732.09 666,-726.09 666,-726.09 666,-714.09 666,-714.09 666,-708.09 672,-702.09 678,-702.09 678,-702.09 807,-702.09 807,-702.09 813,-702.09 819,-708.09 819,-714.09 819,-714.09 819,-726.09 819,-726.09 819,-732.09 813,-738.09 807,-738.09"/>
<text text-anchor="middle" x="742.5" y="-716.39" font-family="Helvetica,sans-Serif" font-size="14.00">review_epics (opus)</text>
</g>
<!-- decompose_epics&#45;&gt;review_epics -->
<g id="edge2" class="edge">
<title>decompose_epics&#45;&gt;review_epics</title>
<path fill="none" stroke="black" d="M796.33,-774.92C787.52,-766.11 776.81,-755.39 767.26,-745.85"/>
<polygon fill="black" stroke="black" points="769.46,-743.1 759.92,-738.51 764.51,-748.05 769.46,-743.1"/>
</g>
<!-- rework_epics -->
<g id="node4" class="node">
<title>rework_epics</title>
<path fill="none" stroke="black" d="M647,-654.09C647,-654.09 516,-654.09 516,-654.09 510,-654.09 504,-648.09 504,-642.09 504,-642.09 504,-630.09 504,-630.09 504,-624.09 510,-618.09 516,-618.09 516,-618.09 647,-618.09 647,-618.09 653,-618.09 659,-624.09 659,-630.09 659,-630.09 659,-642.09 659,-642.09 659,-648.09 653,-654.09 647,-654.09"/>
<text text-anchor="middle" x="581.5" y="-632.39" font-family="Helvetica,sans-Serif" font-size="14.00">rework_epics (opus)</text>
</g>
<!-- review_epics&#45;&gt;rework_epics -->
<g id="edge4" class="edge">
<title>review_epics&#45;&gt;rework_epics</title>
<path fill="none" stroke="black" d="M665.64,-707.68C636.22,-701.89 607.15,-693.98 596.5,-684.09 590.89,-678.88 587.37,-671.58 585.16,-664.28"/>
<polygon fill="black" stroke="black" points="588.57,-663.48 582.9,-654.53 581.75,-665.06 588.57,-663.48"/>
<text text-anchor="middle" x="643.5" y="-676.09" font-family="Helvetica,sans-Serif" font-size="10.00">needs_rework (&lt;3)</text>
</g>
<!-- await_epics -->
<g id="node5" class="node">
<title>await_epics</title>
<path fill="none" stroke="black" stroke-dasharray="5,2" d="M929,-655.09C929,-655.09 846,-655.09 846,-655.09 840,-655.09 834,-649.09 834,-643.09 834,-643.09 834,-629.09 834,-629.09 834,-623.09 840,-617.09 846,-617.09 846,-617.09 929,-617.09 929,-617.09 935,-617.09 941,-623.09 941,-629.09 941,-629.09 941,-643.09 941,-643.09 941,-649.09 935,-655.09 929,-655.09"/>
<text text-anchor="middle" x="887.5" y="-639.89" font-family="Helvetica,sans-Serif" font-size="14.00">await_epics</text>
<text text-anchor="middle" x="887.5" y="-624.89" font-family="Helvetica,sans-Serif" font-size="14.00">(record Q&amp;A)</text>
</g>
<!-- review_epics&#45;&gt;await_epics -->
<g id="edge5" class="edge">
<title>review_epics&#45;&gt;await_epics</title>
<path fill="none" stroke="black" d="M766.62,-702.09C779.89,-693.03 796.8,-681.96 812.5,-673.09 820.63,-668.49 829.43,-663.93 838.05,-659.66"/>
<polygon fill="black" stroke="black" points="839.83,-662.69 847.29,-655.17 836.77,-656.4 839.83,-662.69"/>
<text text-anchor="middle" x="843" y="-676.09" font-family="Helvetica,sans-Serif" font-size="10.00">blocked / ≥3</text>
</g>
<!-- select_epic -->
<g id="node6" class="node">
<title>select_epic</title>
<path fill="none" stroke="black" d="M804.95,-641.63C804.95,-641.63 791.69,-648.54 791.69,-648.54 786.37,-651.32 775.04,-654.09 769.04,-654.09 769.04,-654.09 723.96,-654.09 723.96,-654.09 717.96,-654.09 706.63,-651.32 701.31,-648.54 701.31,-648.54 688.05,-641.63 688.05,-641.63 682.73,-638.86 682.73,-633.32 688.05,-630.54 688.05,-630.54 701.31,-623.63 701.31,-623.63 706.63,-620.86 717.96,-618.09 723.96,-618.09 723.96,-618.09 769.04,-618.09 769.04,-618.09 775.04,-618.09 786.37,-620.86 791.69,-623.63 791.69,-623.63 804.95,-630.54 804.95,-630.54 810.27,-633.32 810.27,-638.86 804.95,-641.63"/>
<text text-anchor="middle" x="746.5" y="-632.39" font-family="Helvetica,sans-Serif" font-size="14.00">select_epic</text>
</g>
<!-- review_epics&#45;&gt;select_epic -->
<g id="edge3" class="edge">
<title>review_epics&#45;&gt;select_epic</title>
<path fill="none" stroke="black" d="M742.62,-702.04C742.75,-693.37 743,-682.66 743.5,-673.09 743.65,-670.31 743.83,-667.41 744.04,-664.51"/>
<polygon fill="black" stroke="black" points="747.55,-664.53 744.85,-654.29 740.57,-663.98 747.55,-664.53"/>
<text text-anchor="middle" x="766.5" y="-676.09" font-family="Helvetica,sans-Serif" font-size="10.00">approved</text>
</g>
<!-- rework_epics&#45;&gt;review_epics -->
<g id="edge6" class="edge">
<title>rework_epics&#45;&gt;review_epics</title>
<path fill="none" stroke="black" d="M647.62,-654.16C662.23,-659.22 677.28,-665.49 690.5,-673.09 700.74,-678.97 710.76,-687.09 719.23,-694.88"/>
<polygon fill="black" stroke="black" points="716.88,-697.48 726.53,-701.85 721.72,-692.41 716.88,-697.48"/>
</g>
<!-- await_epics&#45;&gt;decompose_epics -->
<g id="edge7" class="edge">
<title>await_epics&#45;&gt;decompose_epics</title>
<path fill="none" stroke="black" d="M883.03,-655.24C880.62,-664.1 877.35,-674.81 873.5,-684.09 861.46,-713.14 843.95,-744.54 831.12,-766.14"/>
<polygon fill="black" stroke="black" points="828.09,-764.39 825.95,-774.76 834.1,-767.99 828.09,-764.39"/>
<text text-anchor="middle" x="883" y="-717.59" font-family="Helvetica,sans-Serif" font-size="10.00">resume</text>
</g>
<!-- write_epic -->
<g id="node7" class="node">
<title>write_epic</title>
<path fill="none" stroke="black" d="M538,-570.09C538,-570.09 403,-570.09 403,-570.09 397,-570.09 391,-564.09 391,-558.09 391,-558.09 391,-544.09 391,-544.09 391,-538.09 397,-532.09 403,-532.09 403,-532.09 538,-532.09 538,-532.09 544,-532.09 550,-538.09 550,-544.09 550,-544.09 550,-558.09 550,-558.09 550,-564.09 544,-570.09 538,-570.09"/>
<text text-anchor="middle" x="470.5" y="-554.89" font-family="Helvetica,sans-Serif" font-size="14.00">write_epic (opus)</text>
<text text-anchor="middle" x="470.5" y="-539.89" font-family="Helvetica,sans-Serif" font-size="14.00">epic.md + seed.json</text>
</g>
<!-- select_epic&#45;&gt;write_epic -->
<g id="edge8" class="edge">
<title>select_epic&#45;&gt;write_epic</title>
<path fill="none" stroke="black" d="M703.68,-622.21C660.08,-609.1 591.77,-588.56 540.33,-573.09"/>
<polygon fill="black" stroke="black" points="541.19,-569.69 530.61,-570.16 539.18,-576.4 541.19,-569.69"/>
<text text-anchor="middle" x="634.5" y="-591.09" font-family="Helvetica,sans-Serif" font-size="10.00">yes</text>
</g>
<!-- validate_artifacts -->
<g id="node20" class="node">
<title>validate_artifacts</title>
<path fill="#ffe8cc" stroke="black" d="M835,-570.09C835,-570.09 658,-570.09 658,-570.09 652,-570.09 646,-564.09 646,-558.09 646,-558.09 646,-544.09 646,-544.09 646,-538.09 652,-532.09 658,-532.09 658,-532.09 835,-532.09 835,-532.09 841,-532.09 847,-538.09 847,-544.09 847,-544.09 847,-558.09 847,-558.09 847,-564.09 841,-570.09 835,-570.09"/>
<text text-anchor="middle" x="746.5" y="-554.89" font-family="Helvetica,sans-Serif" font-size="14.00">validate_artifacts</text>
<text text-anchor="middle" x="746.5" y="-539.89" font-family="Helvetica,sans-Serif" font-size="14.00">(final coder&#45;consumability)</text>
</g>
<!-- select_epic&#45;&gt;validate_artifacts -->
<g id="edge9" class="edge">
<title>select_epic&#45;&gt;validate_artifacts</title>
<path fill="none" stroke="black" d="M746.5,-617.89C746.5,-607.09 746.5,-592.91 746.5,-580.47"/>
<polygon fill="black" stroke="black" points="750,-580.12 746.5,-570.12 743,-580.12 750,-580.12"/>
<text text-anchor="middle" x="753" y="-591.09" font-family="Helvetica,sans-Serif" font-size="10.00">no</text>
</g>
<!-- await_write_epic -->
<g id="node8" class="node">
<title>await_write_epic</title>
<path fill="none" stroke="black" stroke-dasharray="5,2" d="M381.5,-429.54C381.5,-429.54 275.5,-429.54 275.5,-429.54 269.5,-429.54 263.5,-423.54 263.5,-417.54 263.5,-417.54 263.5,-405.54 263.5,-405.54 263.5,-399.54 269.5,-393.54 275.5,-393.54 275.5,-393.54 381.5,-393.54 381.5,-393.54 387.5,-393.54 393.5,-399.54 393.5,-405.54 393.5,-405.54 393.5,-417.54 393.5,-417.54 393.5,-423.54 387.5,-429.54 381.5,-429.54"/>
<text text-anchor="middle" x="328.5" y="-407.84" font-family="Helvetica,sans-Serif" font-size="14.00">await_write_epic</text>
</g>
<!-- write_epic&#45;&gt;await_write_epic -->
<g id="edge11" class="edge">
<title>write_epic&#45;&gt;await_write_epic</title>
<path fill="none" stroke="black" d="M398.5,-532.02C388.64,-527.33 379.26,-521.45 371.5,-514.09 350.53,-494.17 339.33,-462.4 333.68,-439.7"/>
<polygon fill="black" stroke="black" points="337.03,-438.65 331.39,-429.68 330.21,-440.21 337.03,-438.65"/>
<text text-anchor="middle" x="390.5" y="-506.09" font-family="Helvetica,sans-Serif" font-size="10.00">blocked</text>
</g>
<!-- split_stories -->
<g id="node9" class="node">
<title>split_stories</title>
<path fill="none" stroke="black" d="M609,-430.54C609,-430.54 424,-430.54 424,-430.54 418,-430.54 412,-424.54 412,-418.54 412,-418.54 412,-404.54 412,-404.54 412,-398.54 418,-392.54 424,-392.54 424,-392.54 609,-392.54 609,-392.54 615,-392.54 621,-398.54 621,-404.54 621,-404.54 621,-418.54 621,-418.54 621,-424.54 615,-430.54 609,-430.54"/>
<text text-anchor="middle" x="516.5" y="-415.34" font-family="Helvetica,sans-Serif" font-size="14.00">split_stories (opus)</text>
<text text-anchor="middle" x="516.5" y="-400.34" font-family="Helvetica,sans-Serif" font-size="14.00">dependencies.json skeleton</text>
</g>
<!-- write_epic&#45;&gt;split_stories -->
<g id="edge10" class="edge">
<title>write_epic&#45;&gt;split_stories</title>
<path fill="none" stroke="black" d="M476.61,-531.82C484.41,-508.5 497.99,-467.89 507.11,-440.62"/>
<polygon fill="black" stroke="black" points="510.51,-441.48 510.37,-430.88 503.88,-439.26 510.51,-441.48"/>
<text text-anchor="middle" x="508.5" y="-506.09" font-family="Helvetica,sans-Serif" font-size="10.00">complete</text>
</g>
<!-- await_write_epic&#45;&gt;write_epic -->
<g id="edge12" class="edge">
<title>await_write_epic&#45;&gt;write_epic</title>
<path fill="none" stroke="black" d="M345.78,-429.61C360.74,-444.35 382.98,-466.19 402.5,-485.09 416.1,-498.26 431.33,-512.83 443.92,-524.83"/>
<polygon fill="black" stroke="black" points="441.73,-527.58 451.39,-531.94 446.56,-522.51 441.73,-527.58"/>
<text text-anchor="middle" x="451" y="-506.09" font-family="Helvetica,sans-Serif" font-size="10.00">resume</text>
</g>
<!-- await_split -->
<g id="node10" class="node">
<title>await_split</title>
<path fill="none" stroke="black" stroke-dasharray="5,2" d="M610,-291C610,-291 545,-291 545,-291 539,-291 533,-285 533,-279 533,-279 533,-267 533,-267 533,-261 539,-255 545,-255 545,-255 610,-255 610,-255 616,-255 622,-261 622,-267 622,-267 622,-279 622,-279 622,-285 616,-291 610,-291"/>
<text text-anchor="middle" x="577.5" y="-269.3" font-family="Helvetica,sans-Serif" font-size="14.00">await_split</text>
</g>
<!-- split_stories&#45;&gt;await_split -->
<g id="edge14" class="edge">
<title>split_stories&#45;&gt;await_split</title>
<path fill="none" stroke="black" d="M511.58,-392.26C506.89,-370.76 502.53,-334.76 517.5,-309 520.02,-304.67 523.3,-300.82 527.03,-297.41"/>
<polygon fill="black" stroke="black" points="529.49,-299.93 535.22,-291.02 525.18,-294.41 529.49,-299.93"/>
<text text-anchor="middle" x="536.5" y="-312" font-family="Helvetica,sans-Serif" font-size="10.00">blocked</text>
</g>
<!-- select_story -->
<g id="node11" class="node">
<title>select_story</title>
<path fill="none" stroke="black" d="M400.8,-278.24C400.8,-278.24 385.34,-285.76 385.34,-285.76 379.95,-288.38 368.55,-291 362.55,-291 362.55,-291 312.45,-291 312.45,-291 306.45,-291 295.05,-288.38 289.66,-285.76 289.66,-285.76 274.2,-278.24 274.2,-278.24 268.8,-275.62 268.8,-270.38 274.2,-267.76 274.2,-267.76 289.66,-260.24 289.66,-260.24 295.05,-257.62 306.45,-255 312.45,-255 312.45,-255 362.55,-255 362.55,-255 368.55,-255 379.95,-257.62 385.34,-260.24 385.34,-260.24 400.8,-267.76 400.8,-267.76 406.2,-270.38 406.2,-275.62 400.8,-278.24"/>
<text text-anchor="middle" x="337.5" y="-269.3" font-family="Helvetica,sans-Serif" font-size="14.00">select_story</text>
</g>
<!-- split_stories&#45;&gt;select_story -->
<g id="edge13" class="edge">
<title>split_stories&#45;&gt;select_story</title>
<path fill="none" stroke="black" d="M492.73,-392.41C460.59,-367.9 403.26,-324.16 367.99,-297.26"/>
<polygon fill="black" stroke="black" points="370.03,-294.41 359.96,-291.13 365.78,-299.98 370.03,-294.41"/>
<text text-anchor="middle" x="418.5" y="-312" font-family="Helvetica,sans-Serif" font-size="10.00">complete</text>
</g>
<!-- await_split&#45;&gt;split_stories -->
<g id="edge15" class="edge">
<title>await_split&#45;&gt;split_stories</title>
<path fill="none" stroke="black" d="M569.75,-291.34C559.43,-314.46 541.04,-355.62 528.8,-383.01"/>
<polygon fill="black" stroke="black" points="525.48,-381.85 524.6,-392.41 531.87,-384.71 525.48,-381.85"/>
<text text-anchor="middle" x="580" y="-312" font-family="Helvetica,sans-Serif" font-size="10.00">resume</text>
</g>
<!-- write_story -->
<g id="node12" class="node">
<title>write_story</title>
<path fill="none" stroke="black" d="M352.5,-208C352.5,-208 152.5,-208 152.5,-208 146.5,-208 140.5,-202 140.5,-196 140.5,-196 140.5,-182 140.5,-182 140.5,-176 146.5,-170 152.5,-170 152.5,-170 352.5,-170 352.5,-170 358.5,-170 364.5,-176 364.5,-182 364.5,-182 364.5,-196 364.5,-196 364.5,-202 358.5,-208 352.5,-208"/>
<text text-anchor="middle" x="252.5" y="-192.8" font-family="Helvetica,sans-Serif" font-size="14.00">write_story (opus)</text>
<text text-anchor="middle" x="252.5" y="-177.8" font-family="Helvetica,sans-Serif" font-size="14.00">research + (fidelity) old&#45;*.png</text>
</g>
<!-- select_story&#45;&gt;write_story -->
<g id="edge16" class="edge">
<title>select_story&#45;&gt;write_story</title>
<path fill="none" stroke="black" d="M319.47,-254.61C307.66,-243.21 292.02,-228.12 278.82,-215.39"/>
<polygon fill="black" stroke="black" points="281.01,-212.64 271.38,-208.22 276.15,-217.68 281.01,-212.64"/>
<text text-anchor="middle" x="309.5" y="-229" font-family="Helvetica,sans-Serif" font-size="10.00">yes</text>
</g>
<!-- validate_coverage -->
<g id="node16" class="node">
<title>validate_coverage</title>
<path fill="#ffe8cc" stroke="black" d="M602,-208C602,-208 395,-208 395,-208 389,-208 383,-202 383,-196 383,-196 383,-182 383,-182 383,-176 389,-170 395,-170 395,-170 602,-170 602,-170 608,-170 614,-176 614,-182 614,-182 614,-196 614,-196 614,-202 608,-208 602,-208"/>
<text text-anchor="middle" x="498.5" y="-192.8" font-family="Helvetica,sans-Serif" font-size="14.00">validate_coverage</text>
<text text-anchor="middle" x="498.5" y="-177.8" font-family="Helvetica,sans-Serif" font-size="14.00">(HARD: seed coverage+graph)</text>
</g>
<!-- select_story&#45;&gt;validate_coverage -->
<g id="edge17" class="edge">
<title>select_story&#45;&gt;validate_coverage</title>
<path fill="none" stroke="black" d="M371.25,-254.81C395.34,-242.54 427.96,-225.92 454.15,-212.59"/>
<polygon fill="black" stroke="black" points="455.8,-215.68 463.12,-208.02 452.62,-209.44 455.8,-215.68"/>
<text text-anchor="middle" x="435" y="-229" font-family="Helvetica,sans-Serif" font-size="10.00">no</text>
</g>
<!-- await_write_story -->
<g id="node13" class="node">
<title>await_write_story</title>
<path fill="none" stroke="black" stroke-dasharray="5,2" d="M304,-37C304,-37 191,-37 191,-37 185,-37 179,-31 179,-25 179,-25 179,-13 179,-13 179,-7 185,-1 191,-1 191,-1 304,-1 304,-1 310,-1 316,-7 316,-13 316,-13 316,-25 316,-25 316,-31 310,-37 304,-37"/>
<text text-anchor="middle" x="247.5" y="-15.3" font-family="Helvetica,sans-Serif" font-size="14.00">await_write_story</text>
</g>
<!-- write_story&#45;&gt;await_write_story -->
<g id="edge19" class="edge">
<title>write_story&#45;&gt;await_write_story</title>
<path fill="none" stroke="black" d="M251.96,-169.7C251.08,-140.23 249.35,-82.09 248.32,-47.58"/>
<polygon fill="black" stroke="black" points="251.81,-47.16 248.01,-37.27 244.81,-47.37 251.81,-47.16"/>
<text text-anchor="middle" x="269.5" y="-101.5" font-family="Helvetica,sans-Serif" font-size="10.00">blocked</text>
</g>
<!-- validate_story -->
<g id="node14" class="node">
<title>validate_story</title>
<path fill="#ffe8cc" stroke="black" d="M199.5,-123C199.5,-123 31.5,-123 31.5,-123 25.5,-123 19.5,-117 19.5,-111 19.5,-111 19.5,-97 19.5,-97 19.5,-91 25.5,-85 31.5,-85 31.5,-85 199.5,-85 199.5,-85 205.5,-85 211.5,-91 211.5,-97 211.5,-97 211.5,-111 211.5,-111 211.5,-117 205.5,-123 199.5,-123"/>
<text text-anchor="middle" x="115.5" y="-107.8" font-family="Helvetica,sans-Serif" font-size="14.00">validate_story</text>
<text text-anchor="middle" x="115.5" y="-92.8" font-family="Helvetica,sans-Serif" font-size="14.00">(HARD: rubric+evidence)</text>
</g>
<!-- write_story&#45;&gt;validate_story -->
<g id="edge18" class="edge">
<title>write_story&#45;&gt;validate_story</title>
<path fill="none" stroke="black" d="M222.77,-169.99C202.71,-157.84 176.04,-141.68 154.31,-128.51"/>
<polygon fill="black" stroke="black" points="156.01,-125.45 145.64,-123.26 152.38,-131.44 156.01,-125.45"/>
<text text-anchor="middle" x="210" y="-144" font-family="Helvetica,sans-Serif" font-size="10.00">written</text>
</g>
<!-- await_write_story&#45;&gt;write_story -->
<g id="edge20" class="edge">
<title>await_write_story&#45;&gt;write_story</title>
<path fill="none" stroke="black" d="M263.77,-37.18C274.22,-49.45 286.85,-66.92 292.5,-85 297.54,-101.12 297.1,-106.75 292.5,-123 288.63,-136.68 280.97,-150.31 273.39,-161.54"/>
<polygon fill="black" stroke="black" points="270.33,-159.79 267.39,-169.97 276.04,-163.85 270.33,-159.79"/>
<text text-anchor="middle" x="315" y="-101.5" font-family="Helvetica,sans-Serif" font-size="10.00">resume</text>
</g>
<!-- validate_story&#45;&gt;select_story -->
<g id="edge21" class="edge">
<title>validate_story&#45;&gt;select_story</title>
<path fill="none" stroke="black" d="M110.18,-123.13C104.8,-145.52 99.69,-183.65 118.5,-208 137.46,-232.54 215.17,-251.01 272.66,-261.65"/>
<polygon fill="black" stroke="black" points="272.32,-265.14 282.78,-263.48 273.57,-258.25 272.32,-265.14"/>
<text text-anchor="middle" x="125" y="-186.5" font-family="Helvetica,sans-Serif" font-size="10.00">ok</text>
</g>
<!-- validate_story&#45;&gt;await_write_story -->
<g id="edge23" class="edge">
<title>validate_story&#45;&gt;await_write_story</title>
<path fill="none" stroke="black" d="M144.14,-84.99C163.91,-72.56 190.35,-55.93 211.54,-42.61"/>
<polygon fill="black" stroke="black" points="213.66,-45.41 220.27,-37.12 209.94,-39.48 213.66,-45.41"/>
<text text-anchor="middle" x="210" y="-59" font-family="Helvetica,sans-Serif" font-size="10.00">fail (≥3)</text>
</g>
<!-- rework_story -->
<g id="node15" class="node">
<title>rework_story</title>
<path fill="none" stroke="black" d="M143,-37C143,-37 12,-37 12,-37 6,-37 0,-31 0,-25 0,-25 0,-13 0,-13 0,-7 6,-1 12,-1 12,-1 143,-1 143,-1 149,-1 155,-7 155,-13 155,-13 155,-25 155,-25 155,-31 149,-37 143,-37"/>
<text text-anchor="middle" x="77.5" y="-15.3" font-family="Helvetica,sans-Serif" font-size="14.00">rework_story (opus)</text>
</g>
<!-- validate_story&#45;&gt;rework_story -->
<g id="edge22" class="edge">
<title>validate_story&#45;&gt;rework_story</title>
<path fill="none" stroke="black" d="M81.77,-84.85C75.61,-79.92 70.03,-73.97 66.5,-67 63.35,-60.77 63.41,-53.62 64.93,-46.8"/>
<polygon fill="black" stroke="black" points="68.29,-47.8 68,-37.21 61.62,-45.67 68.29,-47.8"/>
<text text-anchor="middle" x="87" y="-59" font-family="Helvetica,sans-Serif" font-size="10.00">fail (&lt;3)</text>
</g>
<!-- rework_story&#45;&gt;validate_story -->
<g id="edge24" class="edge">
<title>rework_story&#45;&gt;validate_story</title>
<path fill="none" stroke="black" d="M94.81,-37.02C99.61,-42.64 104.37,-49.2 107.5,-56 110.16,-61.78 111.95,-68.33 113.14,-74.66"/>
<polygon fill="black" stroke="black" points="109.73,-75.55 114.64,-84.94 116.66,-74.54 109.73,-75.55"/>
</g>
<!-- validate_coverage&#45;&gt;split_stories -->
<g id="edge26" class="edge">
<title>validate_coverage&#45;&gt;split_stories</title>
<path fill="none" stroke="black" d="M492.75,-208.27C488.99,-221.18 484.44,-238.96 482.5,-255 477,-300.36 492.78,-352 504.65,-382.89"/>
<polygon fill="black" stroke="black" points="501.54,-384.54 508.49,-392.54 508.04,-381.95 501.54,-384.54"/>
<text text-anchor="middle" x="503" y="-270.5" font-family="Helvetica,sans-Serif" font-size="10.00">fail (&lt;3)</text>
</g>
<!-- review_coverage -->
<g id="node17" class="node">
<title>review_coverage</title>
<path fill="none" stroke="black" d="M739,-123C739,-123 562,-123 562,-123 556,-123 550,-117 550,-111 550,-111 550,-97 550,-97 550,-91 556,-85 562,-85 562,-85 739,-85 739,-85 745,-85 751,-91 751,-97 751,-97 751,-111 751,-111 751,-117 745,-123 739,-123"/>
<text text-anchor="middle" x="650.5" y="-107.8" font-family="Helvetica,sans-Serif" font-size="14.00">review_coverage (opus)</text>
<text text-anchor="middle" x="650.5" y="-92.8" font-family="Helvetica,sans-Serif" font-size="14.00">adequacy: too few/coarse?</text>
</g>
<!-- validate_coverage&#45;&gt;review_coverage -->
<g id="edge25" class="edge">
<title>validate_coverage&#45;&gt;review_coverage</title>
<path fill="none" stroke="black" d="M531.48,-169.99C554.01,-157.69 584.06,-141.28 608.33,-128.03"/>
<polygon fill="black" stroke="black" points="610.22,-130.98 617.32,-123.12 606.87,-124.84 610.22,-130.98"/>
<text text-anchor="middle" x="591" y="-144" font-family="Helvetica,sans-Serif" font-size="10.00">ok</text>
</g>
<!-- await_coverage -->
<g id="node19" class="node">
<title>await_coverage</title>
<path fill="none" stroke="black" stroke-dasharray="5,2" d="M700.5,-37C700.5,-37 600.5,-37 600.5,-37 594.5,-37 588.5,-31 588.5,-25 588.5,-25 588.5,-13 588.5,-13 588.5,-7 594.5,-1 600.5,-1 600.5,-1 700.5,-1 700.5,-1 706.5,-1 712.5,-7 712.5,-13 712.5,-13 712.5,-25 712.5,-25 712.5,-31 706.5,-37 700.5,-37"/>
<text text-anchor="middle" x="650.5" y="-15.3" font-family="Helvetica,sans-Serif" font-size="14.00">await_coverage</text>
</g>
<!-- validate_coverage&#45;&gt;await_coverage -->
<g id="edge27" class="edge">
<title>validate_coverage&#45;&gt;await_coverage</title>
<path fill="none" stroke="black" d="M493.16,-169.9C487.81,-147.86 482.56,-110.46 499.5,-85 517.32,-58.21 548.74,-42.41 578.32,-33.11"/>
<polygon fill="black" stroke="black" points="579.64,-36.37 588.25,-30.2 577.67,-29.65 579.64,-36.37"/>
<text text-anchor="middle" x="520" y="-101.5" font-family="Helvetica,sans-Serif" font-size="10.00">fail (≥3)</text>
</g>
<!-- review_coverage&#45;&gt;split_stories -->
<g id="edge30" class="edge">
<title>review_coverage&#45;&gt;split_stories</title>
<path fill="none" stroke="black" d="M652.28,-123.19C654.86,-157.69 656.81,-234.29 630.5,-291 612.45,-329.9 576.59,-364.14 549.89,-385.9"/>
<polygon fill="black" stroke="black" points="547.57,-383.27 541.92,-392.24 551.93,-388.75 547.57,-383.27"/>
<text text-anchor="middle" x="674" y="-229" font-family="Helvetica,sans-Serif" font-size="10.00">gaps (&lt;3)</text>
</g>
<!-- prune_backlog -->
<g id="node18" class="node">
<title>prune_backlog</title>
<path fill="none" stroke="black" d="M955,-38C955,-38 782,-38 782,-38 776,-38 770,-32 770,-26 770,-26 770,-12 770,-12 770,-6 776,0 782,0 782,0 955,0 955,0 961,0 967,-6 967,-12 967,-12 967,-26 967,-26 967,-32 961,-38 955,-38"/>
<text text-anchor="middle" x="868.5" y="-22.8" font-family="Helvetica,sans-Serif" font-size="14.00">prune_backlog</text>
<text text-anchor="middle" x="868.5" y="-7.8" font-family="Helvetica,sans-Serif" font-size="14.00">(remove authored bullets)</text>
</g>
<!-- review_coverage&#45;&gt;prune_backlog -->
<g id="edge28" class="edge">
<title>review_coverage&#45;&gt;prune_backlog</title>
<path fill="none" stroke="black" d="M697.8,-84.99C731.11,-72.31 775.88,-55.26 811.22,-41.81"/>
<polygon fill="black" stroke="black" points="812.81,-44.95 820.91,-38.12 810.32,-38.41 812.81,-44.95"/>
<text text-anchor="middle" x="779" y="-59" font-family="Helvetica,sans-Serif" font-size="10.00">ok</text>
</g>
<!-- review_coverage&#45;&gt;await_coverage -->
<g id="edge31" class="edge">
<title>review_coverage&#45;&gt;await_coverage</title>
<path fill="none" stroke="black" d="M650.5,-84.99C650.5,-74 650.5,-59.74 650.5,-47.37"/>
<polygon fill="black" stroke="black" points="654,-47.12 650.5,-37.12 647,-47.12 654,-47.12"/>
<text text-anchor="middle" x="681" y="-59" font-family="Helvetica,sans-Serif" font-size="10.00">blocked / ≥3</text>
</g>
<!-- prune_backlog&#45;&gt;select_epic -->
<g id="edge29" class="edge">
<title>prune_backlog&#45;&gt;select_epic</title>
<path fill="none" stroke="black" d="M882.8,-38.3C893.93,-54.4 907.5,-78.96 907.5,-103 907.5,-552.09 907.5,-552.09 907.5,-552.09 907.5,-577.02 845.72,-602.91 798.71,-619.01"/>
<polygon fill="black" stroke="black" points="797.59,-615.69 789.22,-622.19 799.82,-622.33 797.59,-615.69"/>
<text text-anchor="middle" x="930.5" y="-270.5" font-family="Helvetica,sans-Serif" font-size="10.00">next epic</text>
</g>
<!-- await_coverage&#45;&gt;split_stories -->
<g id="edge32" class="edge">
<title>await_coverage&#45;&gt;split_stories</title>
<path fill="none" stroke="black" d="M712.59,-27.85C731.7,-33.06 751.4,-41.7 765.5,-56 780.8,-71.52 779.5,-81.2 779.5,-103 779.5,-274 779.5,-274 779.5,-274 779.5,-346.07 694.22,-304.32 630.5,-338 602.85,-352.61 573.09,-371.68 550.91,-386.6"/>
<polygon fill="black" stroke="black" points="548.81,-383.79 542.5,-392.3 552.74,-389.58 548.81,-383.79"/>
<text text-anchor="middle" x="798" y="-186.5" font-family="Helvetica,sans-Serif" font-size="10.00">resume</text>
</g>
<!-- done -->
<g id="node21" class="node">
<title>done</title>
<ellipse fill="none" stroke="black" cx="676.5" cy="-411.54" rx="33.28" ry="33.28"/>
<ellipse fill="none" stroke="black" cx="676.5" cy="-411.54" rx="37.29" ry="37.29"/>
<text text-anchor="middle" x="676.5" y="-407.84" font-family="Helvetica,sans-Serif" font-size="14.00">done</text>
</g>
<!-- validate_artifacts&#45;&gt;done -->
<g id="edge33" class="edge">
<title>validate_artifacts&#45;&gt;done</title>
<path fill="none" stroke="black" d="M737.2,-531.82C727.17,-512.1 710.85,-480.03 697.66,-454.11"/>
<polygon fill="black" stroke="black" points="700.61,-452.2 692.95,-444.88 694.37,-455.37 700.61,-452.2"/>
<text text-anchor="middle" x="735" y="-506.09" font-family="Helvetica,sans-Serif" font-size="10.00">ok</text>
</g>
<!-- author_failed -->
<g id="node22" class="node">
<title>author_failed</title>
<ellipse fill="none" stroke="red" cx="805.5" cy="-411.54" rx="69.59" ry="69.59"/>
<ellipse fill="none" stroke="red" cx="805.5" cy="-411.54" rx="73.59" ry="73.59"/>
<text text-anchor="middle" x="805.5" y="-407.84" font-family="Helvetica,sans-Serif" font-size="14.00">author_failed</text>
</g>
<!-- validate_artifacts&#45;&gt;author_failed -->
<g id="edge34" class="edge">
<title>validate_artifacts&#45;&gt;author_failed</title>
<path fill="none" stroke="black" d="M754.33,-531.82C759.21,-520.46 765.84,-505 772.71,-488.98"/>
<polygon fill="black" stroke="black" points="776.05,-490.07 776.78,-479.5 769.62,-487.31 776.05,-490.07"/>
<text text-anchor="middle" x="774.5" y="-506.09" font-family="Helvetica,sans-Serif" font-size="10.00">fail</text>
</g>
</g>
</svg>
